/* XPM */
static char *result[] = {
/* columns rows colors chars-per-pixel */
"80 80 192 2 ",
"   c #060203",
".  c #0A0405",
"X  c #0D0708",
"o  c #0F0909",
"O  c #130506",
"+  c #1A0507",
"@  c #1C0608",
"#  c #120C0C",
"$  c #18100F",
"%  c #1C1513",
"&  c #1E191A",
"*  c #161111",
"=  c #220608",
"-  c #2B0709",
";  c #2D080A",
":  c #240809",
">  c #33080B",
",  c #3B0A0C",
"<  c #231B17",
"1  c #231C1A",
"2  c #241B18",
"3  c #2C231E",
"4  c #241F20",
"5  c #2C2523",
"6  c #2A2626",
"7  c #302721",
"8  c #342923",
"9  c #3A2F28",
"0  c #322E2F",
"q  c #3D322B",
"w  c #343031",
"e  c #3A3536",
"r  c #4B0B0E",
"t  c #420A0D",
"y  c #530C0F",
"u  c #5B0C0F",
"i  c #5C0D10",
"p  c #540E10",
"a  c #531114",
"s  c #620D11",
"d  c #6F0F13",
"f  c #750F13",
"g  c #790F14",
"h  c #731115",
"j  c #7D1115",
"k  c #41362D",
"l  c #45382F",
"z  c #463A30",
"x  c #4B3E34",
"c  c #413D3E",
"v  c #4E4136",
"b  c #49413D",
"n  c #53463B",
"m  c #594B3E",
"M  c #57493D",
"N  c #4A4544",
"B  c #5C4E41",
"V  c #504D4D",
"C  c #555153",
"Z  c #5E5958",
"A  c #5C5147",
"S  c #635346",
"D  c #655749",
"F  c #6C5C4C",
"G  c #65594D",
"H  c #705F4F",
"J  c #675253",
"K  c #766453",
"L  c #7B6A57",
"P  c #6A6767",
"I  c #716A69",
"U  c #787576",
"Y  c #831115",
"T  c #8D1419",
"R  c #911217",
"E  c #941318",
"W  c #9B1319",
"Q  c #A3141A",
"!  c #AB151B",
"~  c #B4161C",
"^  c #BC171D",
"/  c #BA181E",
"(  c #C5181F",
")  c #CA181F",
"_  c #CD1920",
"`  c #D41921",
"'  c #DB1A22",
"]  c #E41B23",
"[  c #EB1C24",
"{  c #F21D25",
"}  c #EB232B",
"|  c #EC2C33",
" . c #EC333A",
".. c #ED343B",
"X. c #ED3B41",
"o. c #816E5B",
"O. c #84715D",
"+. c #8B7662",
"@. c #8E7A65",
"#. c #917C66",
"$. c #827F7F",
"%. c #EE454B",
"&. c #EE494F",
"*. c #ED4047",
"=. c #EE4C52",
"-. c #EF5459",
";. c #EF595E",
":. c #F05E64",
">. c #D5686C",
",. c #EF6167",
"<. c #F1686E",
"1. c #F1666B",
"2. c #F26E72",
"3. c #F27176",
"4. c #F2757A",
"5. c #F27A7E",
"6. c #EC7478",
"7. c #99836C",
"8. c #97816B",
"9. c #9F8971",
"0. c #A48D75",
"q. c #AB947A",
"w. c #A79177",
"e. c #B39A7F",
"r. c #827F80",
"t. c #F37D82",
"y. c #858384",
"u. c #969495",
"i. c #9B9C9D",
"p. c #B79E82",
"a. c #AA9191",
"s. c #BEA486",
"d. c #BFA588",
"f. c #A9A7A8",
"g. c #B5B4B4",
"h. c #F4868A",
"j. c #F48A8D",
"k. c #F38185",
"l. c #F48D91",
"z. c #F59295",
"x. c #F59699",
"c. c #F59A9D",
"v. c #C1A689",
"b. c #C6AB8D",
"n. c #CEB292",
"m. c #D2B595",
"M. c #D7BA99",
"N. c #DCBE9C",
"B. c #D6B897",
"V. c #CBAF90",
"C. c #F69FA3",
"Z. c #F7A3A6",
"A. c #F6AAAD",
"S. c #F7AEB1",
"D. c #F6BABC",
"F. c #F8B9BB",
"G. c #F7B6B9",
"H. c #DEC09E",
"J. c #E5C5A2",
"K. c #E7C8A4",
"L. c #EACAA6",
"P. c #EECEA9",
"I. c #F3D2AD",
"U. c #F9D7B0",
"Y. c #FEDBB4",
"T. c #FFDFB8",
"R. c #F0CFAA",
"E. c #FFE1B9",
"W. c #F9BEC1",
"Q. c #F7BFC1",
"!. c #CBCBCB",
"~. c #C5C4C4",
"^. c #D3D3D3",
"/. c #DEDEDE",
"(. c #D7D8D8",
"). c #D2CECE",
"_. c #F9C4C6",
"`. c #FACBCC",
"'. c #FAC7C9",
"]. c #FAD3D5",
"[. c #FAD8D9",
"{. c #F8CFD0",
"}. c #FCDFE0",
"|. c #EBEBEC",
" X c #E3E2E2",
".X c #FCE3E4",
"XX c #FDEBEC",
"oX c #FCE7E8",
"OX c #FDF3F3",
"+X c #FFFFFF",
"@X c #F3F2F3",
"#X c None",
/* pixels */
"#X#X#X#X#X#X#X#X#X#X#X#X#X#X#X#X#X#X#X#X#X#X#X#X#X#X#X#X#X#X#X#X#X#X. . . . . . . . . . . . #X#X#X#X#X#X#X#X#X#X#X#X#X#X#X#X#X#X#X#X#X#X#X#X#X#X#X#X#X#X#X#X#X#X",
"#X#X#X#X#X#X#X#X#X#X#X#X#X#X#X#X#X#X#X#X#X#X#X#X#X#X#X#X#X#X. . . . . . . . . . .   . . . . . . . . #X#X#X#X#X#X#X#X#X#X#X#X#X#X#X#X#X#X#X#X#X#X#X#X#X#X#X#X#X#X",
"#X#X#X#X#X#X#X#X#X#X#X#X#X#X#X#X#X#X#X#X#X#X#X#X#X#X#X. . . .   . .   . O + @ = - = @ O .     . . . . . . #X#X#X#X#X#X#X#X#X#X#X#X#X#X#X#X#X#X#X#X#X#X#X#X#X#X#X",
"#X#X#X#X#X#X#X#X#X#X#X#X#X#X#X#X#X#X#X#X#X#X#X#X#X. . . . .   O ; y h R ! ^ ) ) ` ) ) ~ Q Y s , @ . . . . . . . #X#X#X#X#X#X#X#X#X#X#X#X#X#X#X#X#X#X#X#X#X#X#X#X",
"#X#X#X#X#X#X#X#X#X#X#X#X#X#X#X#X#X#X#X#X#X#X. . . .   . O t Y ~ ` ] [ { [ [ [ [ [ [ [ { { [ [ ' ( W s - O   . . . . #X#X#X#X#X#X#X#X#X#X#X#X#X#X#X#X#X#X#X#X#X#X",
"#X#X#X#X#X#X#X#X#X#X#X#X#X#X#X#X#X#X#X#X#X. . . . X , j / ] { [ [ [ [  .=.1.t.l.z.j.3.:.X.| [ [ [ [ [ ` W r +   . . . . #X#X#X#X#X#X#X#X#X#X#X#X#X#X#X#X#X#X#X#X",
"#X#X#X#X#X#X#X#X#X#X#X#X#X#X#X#X#X#X#X. . . . . , W ` [ [ [ [ [ | 1.Z.[.XX+X+X+X+X+X+X+XXX`.x.-.} [ [ [ { ] ~ s + . . . . #X#X#X#X#X#X#X#X#X#X#X#X#X#X#X#X#X#X#X",
"#X#X#X#X#X#X#X#X#X#X#X#X#X#X#X#X#X#X. . . . , E ' [ [ [ [ [ | h.].+X+X+X+X+X+X+X+X+X+X+X+X+X+XOX_.1.} [ [ [ [ [ ~ y O . . . . #X#X#X#X#X#X#X#X#X#X#X#X#X#X#X#X#X",
"#X#X#X#X#X#X#X#X#X#X#X#X#X#X#X#X. . . . + h ` { [ [ [ [ } <.].+X+X+X+X+X+X+X+X+X+X+X+X+X+X+X+X+X+XOXG.&.[ [ [ [ [ [ Q > . . . . #X#X#X#X#X#X#X#X#X#X#X#X#X#X#X#X",
"#X#X#X#X#X#X#X#X#X#X#X#X#X#X#X. . . . , ! [ [ [ [ [ [ | c.OX+X+X+X+X+X+X+X+X+X+X+X+X+X+X+X+X+X+X+X+X+X.X3.[ [ [ [ [ [ _ s O . . . #X#X#X#X#X#X#X#X#X#X#X#X#X#X#X",
"#X#X#X#X#X#X#X#X#X#X#X#X#X#X. . X X s ` [ [ [ [ [ [ ..D.+X+X+X+X+X+X+X+X+X+X+X+X+X+X+X+X+X+X+X+X+X+X+X+XOXl.} ] [ [ [ [ [ E @ . . . #X#X#X#X#X#X#X#X#X#X#X#X#X#X",
"#X#X#X#X#X#X#X#X#X#X#X#X#X. . . O Y [ [ [ [ [ [ ]  .Q.+X+X+X+X+X+X+X+X+X+X+X+X+X+X+X+X+X+X+X+X+X+X+X+X+X+X+Xl.} [ [ [ [ [ [ ~ > . . . #X#X#X#X#X#X#X#X#X#X#X#X#X",
"#X#X#X#X#X#X#X#X#X#X#X#X. . . @ E [ [ [ [ [ [ [ } A.+X+X+X+X+X+X+X+X+X+X+X+X+X+X+X+X+X+X+X+X+X+X+X+X+X+X+X+XOX5.[ [ [ [ [ [ [ _ , . . . #X#X#X#X#X#X#X#X#X#X#X#X",
"#X#X#X#X#X#X#X#X#X#X#X. . . = ! [ [ [ [ [ [ ] [ k.+X+X+X+X+X+X+X+X+X+X+X+X+X+X+X+X+X+X+X+X+X+X+X+X+X+X+X+X+X+XXX-.[ [ [ [ [ [ [ ) r . . . #X#X#X#X#X#X#X#X#X#X#X",
"#X#X#X#X#X#X#X#X#X#X. . . @ Q [ [ [ [ [ [ [ [ %.oX+X+X+X+X+X+X+X+X+X+X+X+X+X+X+X+X+X+X+X+X+X+X+X+X+X+X+X+X+X+X+X_.| [ [ ] } [ [ } ) , . . . #X#X#X#X#X#X#X#X#X#X",
"#X#X#X#X#X#X#X#X#X. . . O E [ [ [ [ [ [ [ [ } S.+X+X+X+X+X+X+X+X+X+X+X+X+X+X+X+X+X+X+X+X+X+X+X+X+X+X+X+X+X+X+X+X+X3.[ [ ] [ [ [ [ [ _ > . . . #X#X#X#X#X#X#X#X#X",
"#X#X#X#X#X#X#X#X#X. . X j [ [ [ [ [ [ [ [ [ -.OX+X+X+X+X+X+X+X+X+X+X+X+X+X+X+X+X+X+X+X+X+X+X+X+X+X+X+X+X+X+X+X+X+X`.| [ [ [ [ [ [ [ [ ~ : . . . #X#X#X#X#X#X#X#X",
"#X#X#X#X#X#X#X#X. . . i ] [ [ [ [ [ [ [ [ [ C.+X+X+X+X+X+X+X+X+X+X+X+X+X+X+X+X+X+X+X+X+X+X+X+X+X+X+X+X+X+X+X+X+X+X+X1.[ [ [ [ [ [ [ [ [ W O . . #X#X#X#X#X#X#X#X",
"#X#X#X#X#X#X#X. . . , ` [ [ [ [ [ [ [ [ [  .[.+X+X+X+X+X+X+X+X+X+X+X+X+X+X+X+X+X+X+X+X+X+X+X+X+X+X+X+X+X+X+X+X+X+X+XA.[ [ [ [ [ [ [ [ [ [ d . . . #X#X#X#X#X#X#X",
"#X#X#X#X#X#X#X. . O ! [ [ [ [ [ [ [ [ [ [ ;.+X+X+X+X+X+X+X+X+X+X+X+X+X+X+X+X+X+X+X+X+X+X+X+X+X+X+X+X+X+X+X+X+X+X+X+X[. .[ [ [ [ [ [ [ [ [ ` t . . . #X#X#X#X#X#X",
"#X#X#X#X#X#X. . . h [ [ [ [ [ [ [ [ [ [ [ j.+X+X+X+X+X+X+X+X+X+X+X+X+X+X+X+X+X+X+X+X+X+X+X+X+X+X+X+X+X+X+X+X+X+X+X+XOX=.[ [ [ [ [ [ [ [ [ [ ~ + . . #X#X#X#X#X#X",
"#X#X#X#X#X. .   0 >.[ [ [ [ [ [ [ [ [ [ [ Z.+X+X+X+X+X+X+X+X+X+X+X+X+X+X+X+X+X+X+X+X+X+X+X+X+X+X+X+X+X+X+X+X+X+X+X+X+X2.[ [ [ [ [ [ [ ] [ [ X.J . . . #X#X#X#X#X",
"#X#X#X#X#X. . o i._.} [ [ [ [ [ [ [ [ [ } _.+X+X+X+X+X+X+X+X+X+X+X+X+X+X+X+X+X+X+X+X+X+X+X+X+X+X+X+X+X+X+X+X+X+X+X+X+Xh.[ [ [ [ [ [ [ [ [ [ 2.).6 . . #X#X#X#X#X",
"#X#X#X#X.     N |..X .[ [ [ [ [ [ [ [ [ } '.+X+X+X+X+X+X+X+X+X+X+X+X+X+X+X+X+X+X+X+X+X+X+X+X+X+X+X+X+X+X+X+X+X+X+X+X+Xk.[ [ [ [ [ [ [ [ [ [ c.+XU . . . #X#X#X#X",
"#X#X#X#X. . # f.+XXX=.[ [ [ [ [ [ [ [ [ } '.+X+X+X+X+X+X+X+X+X+X+X+X+X+X+X+X+X+X+X+X+X+X+X+X+X+X+X+X+X+X+X+X+X+X+X+X+Xh.[ [ [ [ [ [ [ [ [ } F.+X/.6 . . #X#X#X#X",
"#X#X#X#X.   c |.+X+X1.[ [ [ [ [ [ [ [ [ } `.+X+X+X+X+X+X+X+X+X+X+X+X+X+X+X+X+X+X+X+X+X+X+X+X+X+X+X+X+X+X+X+X+X+X+X+X+Xh.[ [ [ [ [ [ [ } [ | ].+X+X$.. . . #X#X#X",
"#X#X#X. . . u.+X+X+Xt.[ [ [ [ [ [ [ [ [ [ F.+X+X+X+X+X+X+X+X+X+X+X+X+X+X+X+X+X+X+X+X+X+X+X+X+X+X+X+X+X+X+X+X+X+X+X+X+Xt.[ [ [ [ [ [ [ [ [ X..X+X+X^.1   . #X#X#X",
"#X#X#X.   6 /.+X+X+Xh.[ [ [ [ [ [ [ [ [ [ x.+X+X+X+X+X+X+X+X+X+X+X+X+X+X+X+X+X+X+X+X+X+X+X+X+X+X+X+X+X+X+X+X+X+X+X+X+X:.[ [ [ [ [ [ [ [ [ X.XX+X+X+XP   . . #X#X",
"#X#X. . . I +X+X+X+XZ.[ [ [ [ [ [ [ [ [ [ 3.+X+X+X+X+X+X+X+X+X+X+X+X+X+X+X+X+X+X+X+X+X+X+X+X+X+X+X+X+X+X+X+X+X+X+X+XXX*.[ [ [ [ [ [ [ [ [ *.XX+X+X+Xg.# . . #X#X",
"#X#X. . # g.+X+X+X+XZ.[ [ [ [ [ [ [ [ [ [ %.XX+X+X+X+X+X+X+X+X+X+X+X+X+X+X+X+X+X+X+X+X+X+X+X+X+X+X+X+X+X+X+X+X+X+X+X'.} [ [ [ [ [ [ [ [ [ *.XX+X+X+X|.e   . #X#X",
"#X#X.   w |.+X+X+X+XZ.[ [ [ [ [ [ } [ [ [ [ W.+X+X+X+X+X+X+X+X+X+X+X+X+X+X+X+X+X+X+X+X+X+X+X+X+X+X+X+X+X+X+X+X+X+X+Xj.[ [ [ [ [ [ [ [ [ [ *.XX+X+X+X+XU   . . #X",
"#X. .   P +X+X+X+X+Xj.[ [ [ [ [ [ [ [ [ ] [ 4.+X+X+X+X+X+X+X+X+X+X+X+X+X+X+X+X+X+X+X+X+X+X+X+X+X+X+X+X+X+X+X+X+X+XXXX.] [ [ [ [ [ [ [ [ [ *.XX+X+X+X+Xg.# . . #X",
"#X. . . f.+X+X+X+X+X5.] [ } ] [ [ [ [ [ [ [  .].+X+X+X+X+X+X+X+X+X+X+X+X+X+X+X+X+X+X+X+X+X+X+X+X+X+X+X+X+X+X+X+X+XZ.[ [ [ [ [ [ [ [ [ [ [ X.oX+X+X+X+X X6 . . #X",
"#X. . & ).+X+X+X+X+X<.[ [ [ [ [ [ [ [ [ [ [ [ 5.+X+X+X+X+X+X+X+X+X+X+X+X+X+X+X+X+X+X+X+X+X+X+X+X+X+X+X+X+X+X+X+XXX%.[ [ [ [ [ [ [ [ [ [ [ | ].+X+X+X+X+XC   . #X",
"#X.   e |.+X+X+X+XOX-.[ [ [ [ [ [ [ [ [ [ [ [ | F.+X+X+X+X+X+X+X+X+X+X+X+X+X+X+X+X+X+X+X+X+X+X+X+X+X+X+X+X+X+X+Xh.[ [ [ ] [ [ [ [ [ [ [ [ } _.+X+X+X+X+Xy.  . . ",
"#X.   Z +X+X+X+X+X.XX.[ [ [ [ [ [ [ [ [ ] [ [ [ %..X+X+X+X+X+X+X+X+X+X+X+X+X+X+X+X+X+X+X+X+X+X+X+X+X+X+X+X+X+XG.| ] [ [ [ [ [ [ [ [ [ [ [ [ C.+X+X+X+X+Xf.X . . ",
". .   r.+X+X+X+X+X_.} [ [ [ [ [ [ [ [ [ [ [ [ [ ] ,.XX+X+X+X+X+X+X+X+X+X+X+X+X+X+X+X+X+X+X+X+X+X+X+X+X+X+X+X{.X.[ [ [ [ [ [ [ [ [ [ [ [ [ [ 3.+X+X+X+X+X~.% . . ",
". . X i.+X+X+X+X+Xz.[ [ [ [ [ [ [ [ [ [ [ [ [ [ [ [ 6.XX+X+X+X+X+X+X+X+X+X+X+X+X+X+X+X+X+X+X+X+X+X+X+X+X+X].&.[ [ [ [ [ [ [ [ [ [ [ [ [ [ [ %.XX+X+X+X+X/.6   . ",
". . # g.+X+X+X+XOX:.[ [ [ [ [ [ [ [ [ [ [ [ [ [ [ [ [ ,.}.+X+X+X+X+X+X+X+X+X+X+X+X+X+X+X+X+X+X+X+X+X+X+XQ.*.[ [ [ [ [ [ [ [ [ [ [ [ [ [ [ [ } _.+X+X+X+X|.w   . ",
". . * ~.+X+X+X+X[.| [ [ [ [ [ [ [ [ [ [ [ [ [ [ [ [ [ ] &.D.OX+X+X+X+X+X+X+X+X+X+X+X+X+X+X+X+X+X+X+XOXz.| [ [ [ [ [ [ [ [ [ [ [ [ [ [ [ [ [ [ h.+X+X+X+X@XN   . ",
". . & !.+X+X+X+Xz.[ [ [ [ [ [ [ [ [ [ [ [ [ [ [ ] [ [ [ [ | 3.].+X+X+X+X+X+X+X+X+X+X+X+X+X+X+X+XOXF.;.[ ] [ [ [ [ [ [ [ [ [ [ [ [ [ [ } [ [ ] &.XX+X+X+XOXV   . ",
". . & ^.+X+X+XXX&.] [ [ [ [ [ [ [ [ [ [ [ [ [ [ [ [ [ [ [ [ [ | 4.D.XX+X+X+X+X+X+X+X+X+X+X+X}.Z.:.} [ [ [ [ [ [ [ [ ] } [ [ [ [ [ [ [ ] [ [ [ [ A.+X+X+X+XV   . ",
". . & ^.+X+X+XC.[ [ [ [ [ [ [ [ } [ [ [ [ [ [ [ [ [ [ [ [ [ [ [ [ [ &.4.Z._.].[..X].{.G.l.,.X.} [ [ [ [ [ [ [ [ [ [ [ [ [ [ [ [ [ [ [ [ [ [ [ [ ;.OX+X+X@XC   . ",
". . % !.+X+XoX&.[ [ [ [ [ [ [ [ [ [ [ [ [ [ [ [ [ [ [ [ [ [ [ [ [ [ [ [ [ } | | ..| | } [ [ [ [ [ [ [ [ [ [ [ [ [ [ [ [ [ [ [ [ [ [ [ [ [ [ [ [ } A.+X+X@XV   . ",
". . # ~.+X+Xl.[ [ [ [ [ [ } [ [ [ [ [ [ [ [ [ [ [ [ [ [ [ [ [ [ [ [ [ [ [ [ [ [ [ [ [ [ [ [ [ [ [ [ [ [ [ [ [ } [ [ [ [ [ [ [ [ [ [ [ [ [ [ [ [ [ %..X+X@Xc . . ",
". . X g.+X_.| [ [ [ [ [ [ ] [ [ [ [ [ [ [ [ ] [ [ } [ [ [ [ [ [ [ [ [ [ [ [ [ [ [ [ [ [ [ [ [ [ [ [ [ [ [ [ [ [ [ [ [ [ [ [ [ [ [ [ [ [ [ [ [ [ [ [ 5.+X|.0 . . ",
". . . u.oX=.[ [ [ [ [ [ [ [ [ [ [ [ [ [ [ [ } [ [ [ [ [ [ [ [ [ [ [ [ [ [ [ [ [ [ [ [ [ [ [ [ [ [ [ [ [ [ [ [ [ [ [ [ [ ] } [ [ [ [ [ [ [ [ [ [ [ [ } S.^.2 . . ",
". . . P 2.[ [ [ [ [ [ [ [ [ [ [ [ [ [ [ [ [ [ [ [ [ [ [ [ [ [ [ [ [ [ [ [ [ [ [ [ [ [ [ [ [ [ [ [ [ [ [ [ [ [ [ [ [ [ [ [ [ [ [ [ [ [ [ [ [ [ [ [ [ [ X.a.* . . ",
"#X.   a [ [ [ [ [ [ [ [ [ [ [ [ [ [ [ [ [ [ [ [ [ [ [ [ [ [ [ [ [ [ { [ [ { [ { { [ { [ [ [ [ [ [ [ [ [ [ [ [ [ [ [ [ [ [ [ [ [ [ [ [ ] [ [ [ [ [ [ [ [ T X . . ",
"#X. . : ` { [ [ [ [ [ [ [ [ ] [ [ [ [ } [ [ [ [ [ [ [ [ [ { [ [ ' ) ~ ! W R g h f f R W ! ^ ` ' [ [ [ [ [ [ [ [ [ [ [ [ [ [ [ [ [ [ [ } [ [ [ [ [ [ [ [ y . . . ",
"#X. . X W [ [ [ [ [ [ [ [ [ } [ [ [ [ [ [ [ [ [ [ [ [ ] ) Q j y > = O . . .     .   . . O O : , i Y ~ ` [ [ [ [ [ [ [ [ [ [ [ [ [ [ [ [ [ [ [ [ [ [ [ ( : . . #X",
"#X#X.   y [ [ [ [ [ [ [ [ [ [ [ [ [ [ [ [ [ [ [ ] ( R r : .               . . . .         .     . . O ; s W ` [ [ [ [ [ [ [ [ [ [ [ [ [ [ [ [ [ [ [ [ Y . . . #X",
"#X#X. . + ~ [ [ } ] [ [ [ [ [ [ [ [ [ [ [ { ] Q u = .       . # 2 q n D K O.#.#.#.O.o.H m z 7 % o         X > f ( [ [ [ [ [ [ [ [ [ [ [ } [ [ [ [ [ _ ; . . #X#X",
"#X#X. . . u ] [ [ [ [ [ [ [ [ [ [ [ [ [ ] Q r O       % q H 9.b.H.P.U.Y.Y.Y.T.Y.Y.T.Y.T.Y.I.K.n.q.L x < .     . : f ( [ [ [ [ [ [ [ [ [ [ [ [ [ [ [ d . . . #X#X",
"#X#X#X. . X W [ [ [ [ [ [ [ [ [ [ [ [ ) u O     * x @.V.R.Y.E.E.Y.Y.Y.Y.Y.Y.Y.Y.Y.Y.Y.Y.Y.Y.Y.Y.E.T.I.M.9.M < . . . - R ] [ } [ [ [ [ [ [ [ [ [ [ ! + . . #X#X#X",
"#X#X#X. . . ; ( [ [ [ [ [ [ [ [ [ [ Q ;     % F s.I.E.Y.T.Y.U.n.m.Y.Y.Y.Y.Y.Y.Y.Y.Y.Y.Y.Y.Y.Y.L.v.K.T.T.T.U.m.L 3 .   X i _ [ [ [ [ [ [ [ [ [ [ _ , . . . #X#X#X",
"#X#X#X#X. . . r ` [ [ [ [ [ [ [ ] Y O   # S V.U.Y.Y.Y.Y.Y.Y.q.N b v.T.Y.Y.Y.Y.Y.U.Y.Y.Y.Y.Y.U.K N G K.Y.Y.Y.Y.Y.N.o.2 .   , / [ [ [ [ [ [ [ [ ' y . . . #X#X#X#X",
"#X#X#X#X#X. . . p ' [ [ [ [ [ [ Y .   3 w.I.Y.Y.Y.Y.Y.Y.Y.I.A !.f.L Y.Y.Y.Y.Y.Y.Y.Y.Y.Y.Y.Y.m.Z |.I w.T.Y.Y.Y.Y.T.Y.m.M X   - / [ [ [ [ [ [ ' a . . . #X#X#X#X#X",
"#X#X#X#X#X#X. . . p ` [ [ [ [ W O   z n.E.Y.Y.Y.Y.Y.Y.Y.Y.B.N |.!.G I.Y.Y.Y.Y.Y.Y.Y.Y.Y.Y.Y.p.I +Xu.K Y.Y.Y.Y.Y.Y.Y.T.R.O.$   , ` [ [ [ [ ` i . . . . #X#X#X#X#X",
"#X#X#X#X#X#X. . . . , ~ [ [ [ p   z H.Y.Y.Y.Y.Y.Y.Y.Y.Y.T.v.e @X!.n I.T.Y.Y.Y.Y.Y.Y.Y.Y.Y.T.w.P +Xu.m U.Y.U.Y.Y.Y.Y.Y.Y.T.0.$ . W [ [ [ ( r . . . . #X#X#X#X#X#X",
"#X#X#X#X#X#X#X. . . . @ h ` ] ,   8.T.Y.U.Y.Y.Y.Y.Y.Y.Y.T.e.% f.y.q I.Y.U.Y.Y.Y.Y.Y.Y.Y.Y.T.0.0 ~.C x I.Y.Y.Y.Y.Y.Y.Y.Y.Y.U.v   Y { ' R : . . . . #X#X#X#X#X#X#X",
"#X#X#X#X#X#X#X#X#X. . . . ; f : . 8.T.Y.Y.Y.Y.Y.Y.Y.Y.Y.E.q.X % # q P.Y.Y.Y.Y.Y.Y.Y.Y.Y.Y.T.0.X 1 X z I.Y.Y.Y.Y.Y.Y.Y.Y.Y.U.v   f W , X . . . #X#X#X#X#X#X#X#X#X",
"#X#X#X#X#X#X#X#X#X#X. . . . . . . +.Y.Y.Y.Y.Y.Y.U.Y.Y.Y.T.q.X .   q R.Y.Y.Y.Y.Y.Y.U.Y.Y.Y.T.0.. .   l I.Y.Y.U.Y.Y.Y.Y.Y.Y.I.x . O X . . . . #X#X#X#X#X#X#X#X#X#X",
"#X#X#X#X#X#X#X#X#X#X#X#X. . . . . L Y.Y.Y.Y.Y.Y.Y.Y.Y.Y.T.q.X . . q R.Y.Y.U.Y.Y.Y.Y.Y.Y.Y.T.0.. .   z I.Y.Y.Y.Y.Y.Y.Y.Y.Y.R.k . . . . . . #X#X#X#X#X#X#X#X#X#X#X",
"#X#X#X#X#X#X#X#X#X#X#X#X#X#X. .   S Y.Y.Y.Y.Y.Y.Y.Y.Y.Y.T.e.X .   k I.Y.Y.Y.Y.Y.U.Y.Y.Y.Y.T.w.X .   x U.Y.Y.Y.Y.Y.Y.Y.Y.Y.J.3 . . . . #X#X#X#X#X#X#X#X#X#X#X#X#X",
"#X#X#X#X#X#X#X#X#X#X#X#X#X#X#X.   k R.Y.Y.Y.Y.U.Y.Y.Y.Y.Y.v.# .   v I.Y.Y.Y.Y.Y.Y.Y.Y.Y.Y.Y.e.# .   M U.Y.Y.Y.Y.Y.Y.U.Y.T.m.% . #X#X#X#X#X#X#X#X#X#X#X#X#X#X#X#X",
"#X#X#X#X#X#X#X#X#X#X#X#X#X#X#X.   < M.T.Y.Y.U.Y.Y.Y.Y.U.T.m.% .   S Y.Y.Y.Y.Y.Y.Y.Y.Y.Y.Y.T.V.$ .   F Y.U.Y.Y.Y.Y.Y.Y.Y.T.q.X . #X#X#X#X#X#X#X#X#X#X#X#X#X#X#X#X",
"#X#X#X#X#X#X#X#X#X#X#X#X#X#X#X#X. X 0.T.Y.Y.Y.Y.Y.Y.Y.Y.Y.L.9   . #.Y.Y.Y.Y.Y.Y.Y.U.Y.Y.Y.T.K.8 . . 8.T.Y.Y.Y.Y.Y.Y.Y.Y.Y.K . . #X#X#X#X#X#X#X#X#X#X#X#X#X#X#X#X",
"#X#X#X#X#X#X#X#X#X#X#X#X#X#X#X#X.   m U.Y.Y.Y.Y.Y.Y.Y.Y.Y.Y.#.# 7 M.Y.Y.Y.Y.Y.Y.Y.Y.Y.Y.Y.Y.Y.O.O 9 N.Y.Y.Y.Y.Y.Y.Y.Y.Y.J.9 . . #X#X#X#X#X#X#X#X#X#X#X#X#X#X#X#X",
"#X#X#X#X#X#X#X#X#X#X#X#X#X#X#X#X. . % b.T.Y.Y.Y.Y.Y.Y.Y.Y.Y.I.s.m.Y.Y.Y.Y.Y.Y.Y.Y.Y.Y.Y.Y.Y.Y.R.s.M.Y.Y.Y.Y.Y.Y.Y.Y.Y.Y.0.X . #X#X#X#X#X#X#X#X#X#X#X#X#X#X#X#X#X",
"#X#X#X#X#X#X#X#X#X#X#X#X#X#X#X#X#X.   m I.Y.Y.Y.Y.Y.Y.Y.Y.Y.Y.Y.Y.Y.Y.Y.Y.Y.Y.U.Y.Y.Y.Y.Y.Y.Y.Y.T.Y.Y.Y.Y.Y.Y.Y.Y.Y.T.J.q . . #X#X#X#X#X#X#X#X#X#X#X#X#X#X#X#X#X",
"#X#X#X#X#X#X#X#X#X#X#X#X#X#X#X#X#X. . # 8.T.Y.Y.Y.U.Y.Y.Y.Y.Y.Y.Y.Y.Y.Y.U.Y.Y.Y.Y.Y.U.Y.U.Y.Y.Y.Y.Y.Y.Y.Y.Y.Y.U.Y.Y.U.L . . . #X#X#X#X#X#X#X#X#X#X#X#X#X#X#X#X#X",
"#X#X#X#X#X#X#X#X#X#X#X#X#X#X#X#X#X#X. . % 0.Y.Y.Y.Y.Y.Y.Y.Y.Y.U.Y.Y.Y.Y.Y.Y.Y.Y.Y.Y.Y.Y.Y.Y.Y.Y.Y.Y.Y.Y.Y.Y.Y.Y.Y.U.#.O . . #X#X#X#X#X#X#X#X#X#X#X#X#X#X#X#X#X#X",
"#X#X#X#X#X#X#X#X#X#X#X#X#X#X#X#X#X#X. . . % +.P.T.Y.Y.Y.Y.Y.Y.Y.Y.Y.Y.Y.Y.Y.Y.Y.Y.Y.Y.Y.Y.Y.Y.Y.Y.Y.Y.Y.Y.Y.T.T.J.K # . . #X#X#X#X#X#X#X#X#X#X#X#X#X#X#X#X#X#X#X",
"#X#X#X#X#X#X#X#X#X#X#X#X#X#X#X#X#X#X#X. . . X z 0.J.Y.T.Y.Y.Y.Y.Y.Y.Y.Y.Y.Y.Y.Y.Y.Y.Y.Y.Y.Y.Y.Y.Y.Y.Y.Y.T.U.N.7.9 . . . . #X#X#X#X#X#X#X#X#X#X#X#X#X#X#X#X#X#X#X",
"#X#X#X#X#X#X#X#X#X#X#X#X#X#X#X#X#X#X#X#X. . .   X 3 F q.M.I.Y.Y.T.T.Y.T.Y.Y.Y.Y.Y.Y.Y.Y.Y.Y.T.E.Y.Y.R.m.0.S 3 .   . . . #X#X#X#X#X#X#X#X#X#X#X#X#X#X#X#X#X#X#X#X",
"#X#X#X#X#X#X#X#X#X#X#X#X#X#X#X#X#X#X#X#X#X. . . . .   X < z F @.q.b.m.H.J.J.J.J.J.J.J.J.N.m.s.w.O.F k % X   . . . . #X#X#X#X#X#X#X#X#X#X#X#X#X#X#X#X#X#X#X#X#X#X",
"#X#X#X#X#X#X#X#X#X#X#X#X#X#X#X#X#X#X#X#X#X#X#X. . . . . . .   . X O % < 3 3 8 3 3 7 3 2 < % # X .     . . . . . #X#X#X#X#X#X#X#X#X#X#X#X#X#X#X#X#X#X#X#X#X#X#X#X",
"#X#X#X#X#X#X#X#X#X#X#X#X#X#X#X#X#X#X#X#X#X#X#X#X#X#X. . . . . . . . . . . . . . . . X . . . . . . . . . . #X#X#X#X#X#X#X#X#X#X#X#X#X#X#X#X#X#X#X#X#X#X#X#X#X#X#X",
"#X#X#X#X#X#X#X#X#X#X#X#X#X#X#X#X#X#X#X#X#X#X#X#X#X#X#X#X#X#X. . . . . . . . . . . . . . . . . . . #X#X#X#X#X#X#X#X#X#X#X#X#X#X#X#X#X#X#X#X#X#X#X#X#X#X#X#X#X#X#X"
};
