/* XPM */
static char *_c62557dd5304a53866a6363fb022dea0PMlpylz106y3TVZ[] = {
/* columns rows colors chars-per-pixel */
"80 80 208 2 ",
"   c None",
".  c #3E2E1F",
"X  c #39332D",
"o  c #3B3835",
"O  c #363B39",
"+  c #3A3E3D",
"@  c #353634",
"#  c #4A2B18",
"$  c #562E1A",
"%  c #502E16",
"&  c #4E321E",
"*  c #5C311C",
"=  c #56321C",
"-  c #62331E",
";  c #683B1E",
":  c #453221",
">  c #4B3623",
",  c #4F3825",
"<  c #563423",
"1  c #533A26",
"2  c #5C3A24",
"3  c #543D29",
"4  c #5C3C2A",
"5  c #593524",
"6  c #403F3D",
"7  c #673620",
"8  c #6A3722",
"9  c #653E23",
"0  c #6E3B23",
"q  c #633B2A",
"w  c #743C25",
"e  c #7B3E29",
"r  c #773D28",
"t  c #3C413F",
"y  c #5C4128",
"u  c #4A443D",
"i  c #49443D",
"p  c #544437",
"a  c #62452B",
"s  c #6C4728",
"d  c #774224",
"f  c #7C4326",
"g  c #704A26",
"h  c #7E4229",
"j  c #724D2C",
"k  c #794829",
"l  c #714F30",
"z  c #795237",
"x  c #3E4341",
"c  c #424644",
"v  c #444946",
"b  c #464B49",
"n  c #4A4E4A",
"m  c #4D4A45",
"M  c #534B43",
"N  c #4D524E",
"B  c #51544E",
"V  c #5C544A",
"C  c #4F5451",
"Z  c #525651",
"A  c #555954",
"S  c #5B5D55",
"D  c #575D59",
"F  c #595E59",
"G  c #68584A",
"H  c #6C5D51",
"J  c #5D625C",
"K  c #5F6057",
"L  c #61655E",
"P  c #66655B",
"I  c #716257",
"U  c #626660",
"Y  c #656A63",
"T  c #6A6D65",
"R  c #676C68",
"E  c #6A6D69",
"W  c #696665",
"Q  c #6C7067",
"!  c #6E726B",
"~  c #72766C",
"^  c #75796E",
"/  c #787A6F",
"(  c #777065",
")  c #6F7570",
"_  c #737572",
"`  c #767A71",
"'  c #797E75",
"]  c #7C7F75",
"[  c #7A7D73",
"{  c #7B7A7A",
"}  c #83442C",
"|  c #89462E",
" . c #854C2C",
".. c #8C4B2D",
"X. c #804A27",
"o. c #8C522D",
"O. c #865128",
"+. c #92532E",
"@. c #935A2E",
"#. c #8D4E30",
"$. c #8B4630",
"%. c #934D31",
"&. c #9A4D38",
"*. c #8E5231",
"=. c #895736",
"-. c #945433",
";. c #9C5334",
":. c #965A32",
">. c #9C5C33",
",. c #9C5B38",
"<. c #9F503A",
"1. c #914D2F",
"2. c #A25636",
"3. c #A25C35",
"4. c #A5543D",
"5. c #A45C39",
"6. c #AA5D3A",
"7. c #9C6335",
"8. c #96632E",
"9. c #A36336",
"0. c #AA6437",
"q. c #AC6937",
"w. c #A66539",
"e. c #AB633B",
"r. c #AD6B3A",
"t. c #A56B36",
"y. c #B3653D",
"u. c #B36C3D",
"i. c #BA6C3F",
"p. c #AD7439",
"a. c #AA7337",
"s. c #B5723C",
"d. c #BA743E",
"f. c #B47A3C",
"g. c #BA7C3E",
"h. c #B07437",
"j. c #C1723F",
"k. c #AD5941",
"l. c #B35E42",
"z. c #B36442",
"x. c #B56C40",
"c. c #BC6D41",
"v. c #BB6544",
"b. c #BD7342",
"n. c #BE7B40",
"m. c #B77341",
"M. c #AA7552",
"N. c #C16D45",
"B. c #C76F4A",
"V. c #C37443",
"C. c #C87646",
"Z. c #C57A44",
"A. c #CA7D46",
"S. c #CD7E48",
"D. c #C8764A",
"F. c #D27D4D",
"G. c #7D8176",
"H. c #7E8279",
"J. c #7E8379",
"K. c #BC813E",
"L. c #C1833F",
"P. c #BE8241",
"I. c #81847A",
"U. c #82857B",
"Y. c #85897E",
"T. c #84887E",
"R. c #888B7F",
"E. c #B78567",
"W. c #C48543",
"Q. c #CC8147",
"!. c #C58944",
"~. c #CC8C45",
"^. c #CE8149",
"/. c #CF8E49",
"(. c #D18C46",
"). c #D2844B",
"_. c #D6894D",
"`. c #D98B4E",
"'. c #D8864E",
"]. c #CD9047",
"[. c #CE9048",
"{. c #D39348",
"}. c #DD934E",
"|. c #D19045",
" X c #DC8C51",
".X c #D98451",
"XX c #DE9251",
"oX c #E1974F",
"OX c #E08C54",
"+X c #E39354",
"@X c #E59954",
"#X c #E69558",
"$X c #E99A59",
"%X c #E89859",
"&X c #838382",
"*X c #858B82",
"=X c #898E84",
"-X c #8A8984",
";X c #8B9086",
":X c #8D9289",
">X c #969B92",
",X c #9B9B9B",
"<X c #92978D",
"1X c #A19C98",
"2X c #A9A7A6",
"3X c #B8B8B8",
"4X c #AFB0B0",
"5X c #CDC5C1",
/* pixels */
"                                                                                                                                                                ",
"                                                                                                                                                                ",
"                                                                                                                                                                ",
"                                                                                                                                                                ",
"                                                                                                                                                                ",
"                                                                                                                                                                ",
"                                                                                                                                                                ",
"                                                                                                                                                                ",
"                                                                        D D D J D J D D D D                                                                     ",
"                                                                      ' =XT.*X&XJ.*X*X*X;XJ.R                                                                   ",
"                                                                    U ;XY.Y.=XY.&XT.J.H.G.' ' Z                                                                 ",
"                                                                    U T.[ G.U.] G.J.G.R Q Q R N                                                                 ",
"                                                                    J G.' G.G.[ G.J.^ U Y ! U x                                                                 ",
"                                                                    N ~ G.` / G.G.J.` T T ! F                                                                   ",
"                                                                    N Q [ ` G./ ` J.` ! T Y N                                                                   ",
"                                                                    c Y ^ ^ G.^ ^ G.^ ! ! ~ N c                                                                 ",
"                                                                A D v J ~ [ G._ ` G.^ ` ` Q C D U C                                                             ",
"                                            A S             J G.=XG.A N ! ^ ~ Y ~ ] ' ' ' R C *X;X;X` J c         ^ D                                           ",
"                                          Q ' ` Z     b Y ) T.G.^ ) D c Y ^ ! ! ^ ^ ~ ' ' U J T.^ ) G.&XG.C     ! T.=XY                                         ",
"                                        ! J.J.' Y A N ) ;XG.^ ) Q ! U c Y U.] ] I.' G.` G.J R J.) ! T ! J.G.C T R.R.R.T.U                                       ",
"                                      ! J.` ^ ` ) ) K H.J.` ' H.G.^ ! n ! H.H.] H.H.G.` _ F _ ' ^ ^ ! Q ^ T A Y.R.R.I.I.G.D                                     ",
"                                    R G.` ` ~ ` ) ) J K ` T.' ` ` ) ! C J E ^ ' _ ` ` ! E D ' ' ~ G.! ! Q N T R.R.Y.Y.I.G.^ D                                   ",
"                                  n ~ G.! ` ' ' G.G.G.J J ' ~ ' ! S B u M H H H H I I H V M H J ~ G.~ G.K J R.Y.Y.Y.T.T.T.U.L                                   ",
"                                    N ! ~ ` ~ ` ) ! G.! C Q ~ P G % 0  . .,.5. .o.z.6.;.#.#.s 5 H S T T C Y.Y.H.I.G.G.U.Y.T N                                   ",
"                                      N T H.^ ^ ~ ^ G.G.J u p q  .o.,.3.,.5.k.*.,.c.z.k.z.z.w.,.#.s p c T =XI.I.I.I.] I.T n                                     ",
"                                      N N R ` ` ^ G.` Q m # k e.3.>.,.e.w.e.u.-.7.D.x.x.x.x.z.z.z.,.r 4 H U.] ` I.I.I.L A B                                     ",
"                                    b ~ ! Z ! ^ ! ^ Q v < s ,.z.6.9.e.z.x.x.b.,.t..XD.b.m.b.x.m.x.,.=.,.3 m Y ~ / I.K A J.Y t                                   ",
"                                    Q =XU.J D ^ ! L m =  . .7.c.u.e.x.b.V.b.A.w.m. X.X^.W.D.D.b.Z.,.-.c.-.2 c J Y A A G.U.[ S                                   ",
"                                  J Y.G.^ G.n Z J i 2  .3.o.7.V.m.m.b.D.Q.A.^.z.m.#X.X.X).^.^.S.).w.7.D.z.*.y i c J T.I.I.U.^ N                                 ",
"                                b ` [ ^ ^ G.! N o 5 *.9.w.*.e.S.A.Z.Q.^.^.^.^.p.W.#X X_..X).^.)..Xx.w.S.m.z.:.4 i / G.I.Y.T.G.T t                               ",
"                                F [ ^ [ J.H.' m = #.w.w.r.:.x.).^.Q.^._._.)._.x.!.$XXX_._._._._. Xm.z._.n.c.x.:.4 S / I.Y.U.G.~ Z                               ",
"                              v N E ~ / ' ' K & O.9.y.u.g.>.f..X).^.^._._._.`.f.!.%XXX X_._.^./. Xm.x.XXQ.V.b.u.o.1 Q G.H.~ / Q b v                             ",
"                              ! J C L ! ~ J.m 0 9.w.u.b.Z.9.n. X).)._._.`.`.`.m.!.$X X.X_._._.^._.n.n.XX^.Z.D.m.x. .V ~ ` T J Z S D                             ",
"                              [ J.^ T T ! T = o.e.x.b.Z.Z.r.n.`.).).`. X X`. Xf.!.%X X_.).)._.)._.Z.f.XX_.A.Z.b.m.z.q D J U R ` ! A                             ",
"                            T ~ ~ ^ U.` L p  .9.e.b.A.A.!.w.P.`.).).XX.X_..X`.f.!.%X`.)._./.).)._.V.h. X_.S.Q.Z.m.r. .m J G.G.^ ~ L n                           ",
"                            ~ ^ ^ ~ ~ / T 2 +.9.x.D.Q.Q._.q.~. X_.`.XX/._._._.s.!.%X_.).^.).).)._.n.p.}._.Q.Q.Z.m.u.7.4 Q ~ ! ^ ^ ~ S                           ",
"                            K ` ~ ~ ~ ~ J l 9.h.b.S.^.^.).r.].XX_. X+X_.)._.).s.W.%X).).).^.^.).`.Z.h.}.(.Q.Z.Z.V.d.i.G L ! ^ ~ ^ / B                           ",
"                            K [ ~ ~ ~ ~ H =.r.d.Z.^.^.).).r.].}._.`.XX_.)._._.s.!.@X_.).^.).).)._.n.f.}.).Q.Q.Z.Z.d.i.=.L ! ~ ~ / ` B                           ",
"                          O A L L L P J 3 ,.x.m.Z.^.)._._.s.~.XX).`._._.^.^.).u.W.%X)._.^.^._._.}.n.f.}._.).Q.Q.Z.d.m.r.p J P P Y Y Z                           ",
"                          _ ! ! ! Q Q N y x.A.Q.).).`..X Xh.[.#X_.`._._.).)._.u.W.%X_. X)._.}.`.XXZ.f.}._.)._.).Q.A.Z.r., C Y T J L R J.                        ",
"                    c Y ! *X=X=X;X:X:XD s d.).).^.'.`.`.}.s./.%X_.`._.)._.)._.m.W.+X.X}._.`.}.`.XXn.m.@X X_._._._.).Z.w.y J =X=XI.-X:X*XG.` D x                 ",
"                    b ' ~ ` T W R ^ ` B g j.).Q.^._.`.`.`.u.(.%X_.)._._.).)._.n.!.+X_.}.`.}.`.`.XXn.P.@X_.).)._.).).Q.s.l A ` ' ' Y.I.^ ~ / Z t                 ",
"                    n =X~ ' ` ~ Q Q ~ Z g A.S.).^._.`.`.`.h.(.%X_._.).).).)._.n.!.@X.X}.`.`.`.`.XXn.P.$X_.).).^._.)._.d.l Y G.' ] Y.T.' / / Z t                 ",
"                    n ;X~ ' T.*XH.~ ~ B g Z.Q.Q.).`._._.`.u.[.#X_.^._.).).)._.s.L.XX_.`.`.`._.'. Xn.P.$X X^.)./.).)._.Z.l R ' ) ` ] ] ' ] / Z i                 ",
"                    n =X~ ' G.U.I.] ^ B g Z.Q.).)._._.)..Xa.~.#X).).).^._.^._.i.L.oX_.`.+X`.).`..Xb.K.$X_.).^.^.).). X(.l ) G.) / G.G.' [ ` A t                 ",
"                    v [ ^ ] ] ] ] ] ^ N g Z.A.).).`.).)._.r.[.#X).^._.^./.^._.s.L.oX_.`.XX`._.)._.b.K.$X.X).^._.^.^.`.(.l ! &XG.] ' ' ' ` ^ Z t                 ",
"                    v ! T ! ~ E Q ` ^ B g Z.A.A.S.'._.).`.u.[.%X).^.^.^.).^.).s.W.oX)._.`. X'.).).n.K.$X).^.^.^.^.^.(.{.l Q J.` ! ~ ` ! T T B t                 ",
"                    c T W L L L W ~ ~ N g Z.Z.A.S..X).).`.r.(.#X^.^.^.^.^.^.).s.L.@X)._.`. X'.)._.d.K.$X).^.^.Q._.^. X{.l Y H.) Q T Q W U K N t                 ",
"                    c A A A A A A A D v g Z.S.Q.S._.).).'.q.(.+X^.Q.^.S.).^.).w.g.#X).'.'.`.).)..Xs.W.#X).Q.S.Q.).S.`.[.y N D A A A A Z Z n c x                 ",
"                    t x x t n A K K Z v g d.).).).).).).).0.~.}.^.A.^.Q.^.^.^.u.K.#XS.'.).(.).).).m.f.@XQ.S.A.).^.Q._.{.s b A J U A v x x x t                   ",
"                          + Y :X>X:XI.Z g j.^.).^._.S.).).9.W.OX^.A.A.A.^.^.^.q.K.+XS.S.S.).).S.).u.h.@XA.A.A.S.^.S.).|.y J &X:X:X[ A                           ",
"                          t E =X;XI.G.B g Q.^.^.^.).).S.).9.W.oX^.^.^.Q.^.^.).w.f.+X).S.^.).).^.).u.a.+XA.A.A.S.S.S.).(.a ! =X^ ~ T Z                           ",
"                          + L Y.R.I./ B g A.Q.).^.).).S.).q.L.}.^.^.^.^.).^.).q.g.OX).S.Q.^.^.S.).s.f.oXC.Z.C.A.A.A.S.~.a ) T.` ` ` Z                           ",
"                          + F / I.G.I.V g Z.S.).).^.).).).s.(.`.^.^.^.Q.S.^.).i.K.`.S.S.^.^.^.S.S.d.f.oXj.j.d.s.j.V.A.(.l ) J.` ~ ^ D                           ",
"                          + F ~ / I./ A g j.Q.^.^.).).^.).q.(. X^.^.^.^.^.).^.d.L.OXA.S.^.S.S.A.).s.f.+X^.b.M.E.E.E.m.~.l R G.! E ! D                           ",
"                          t S ~ I.G./ B g Q.A.A.^.).Q.Q.).q.~..X^.A.^.^.^.^.).u.L..XA.S.^.A.A.A.).d.f.OXZ.=.2X4X3X3XM.~.l Y ` Y U Y Z                           ",
"                          + J ~ ^ ! Q N g Z.A.S.Q.^.^.^.^.9.!.`.S.^.^.S.).^.).q.g. XS.S.S.^.S.S.).f.a.}.c.< B &X&XW 7.{.l J ) R D U C                           ",
"                          + K Q T J L N g Z.A.S.S.^.S.S.).>.L.OXS.).).F.S.'.S.0.f.+XF.S.Q.).).).).h.a.}.c.$ 6 W { V z n.a D ! Q J U C                           ",
"                          + N F J N b t g W.S.^.S.Q.S.Q.).9.L.oX).'.S.L.S.'.'.q.f.+X).Q.).).^.).).u.p.@Xu.I ,X{ 2X3XM.M.3 N F F D D C                           ",
"                    x N C A C Z A C N i g Q.S.A.Q.Q.Q.Q.^.9.L.OX).).S.S.Q.'.'.s.W.#X).Q.^.).^.).'.m.h.oXz 2X_ c b _ 5X=.3 b C A D D D x D A C c                 ",
"                    c T.=X<X>X>X>X:X:XJ g Q.^.A.S.Q.S.A.'.q.L.#X'.S.L.).^.'.).q.Z.+X).A.).Q.).^.'.x.p.XXs &Xo @ @ o 1Xg 3 R :X;X=X=XR.&XT.` D +                 ",
"                    c J.[ ^ ^ [ G./ ~ B g j.A.S.A.j.A.A.L.9.L.#XS.'.'.).^.).'.9.p.+X).A.Q.).^.^.'.s.p.XX0 _ Z L Z o Y.9 3 ! ` Y Q Q ^ M.U.[ Z t                 ",
"                    c J.^ [ ' G./ G.~ N g j.S.S.S.Z.A.Z.^.>.g.OXS.).^.^.Q.).).>.r.+X).A.S.Q.^.S.^.s.p.XX0 E { Z 6 W { - 3 R _ L Y / Y.*XG./ A t                 ",
"                    c T.~ G.I.U./ ~ ~ B g d.A.A.S.A.A.V.S.+.h.OXF.S.^.S.S.).).>.w.`.S.Z.A.S.S.A.S.r.7.}. .6 &X4X4X&Xi % , ! U.T Y / T.Y.G./ A c                 ",
"                    n ;X~ J.U.I.~ Q ~ B g V.A.A.V.V.N.V.A.o.f. XF.S.S.S.S.S.).9.q.`.S.j.Q.S.A.A.S.3.7.`.+.# X X o X ;  .< _ *X^ ^ G./ I./ / V t                 ",
"                    b ;X` G.G.G./ ~ ! N g V.C.C.c.V.c.c.c.X.h..XC.C.C.S.A.C.S.>.s.`.A.j.j.A.Z.Z.A.3.8.).@.X.; ; ; k 8.f.> ! =XH.I.G.G./ Q / D b                 ",
"                    c T.` [ G.U.~ ! Q N k i.C.V.c.c.c.y.c.X.p..XC.j.C.F.j.C.C.>.q.OXj.j.j.j.j.j.C.>.8.).q.V.j.Q.V.V.S.L.> R T.G./ / U.I.! Q A x                 ",
"                    c ' ` G./ ^ Q T Y m g v.V.V.c.v.u.y.i.k h.F.N.j.j.j.j.C.C.+.w.'.d.u.i.i.i.j.j.:.@.A.9.i.d.Z.0.0.i.g.> J G.H.G.~ I.I.^ T N t                 ",
"                    v L R R U J K K J b g v.N.c.y.y.y.y.y.f h.F.j.i.j.C.i.i.j.+.w.).i.0.q.y.y.i.i.+.@.A.2.q.0.3.;.3.9.d.> b J J U J U L Z n x x                 ",
"                    x b n n x N A Z Z c q l.i.6.2.6.e.6.6.f a.D.y.y.y.j.i.i.j...q.S.q.3.0.y.y.0.y.o.o.V.1.;.3.;.+.o.3.h.> x n N C C N b t @ O                   ",
"                          t J J.;XJ.G.B q ;.2.2.2.2.2.2.2.d q.D.y.6.y.y.6.y.i.O.9.Z.0.2.2.6.6.6.6...o.i.%.+.>.%.| ..:.r.: J J.:X;XJ.A                           ",
"                          t K Q _ ' G.A q ;.;.2.2.2.;.2.;.; t.B.6.3.y.y.6.6.y.} 9.V.6.2.;.0.2.2.6.O.O.i.| | o.} X.....t.: Q U.! ! ~ D                           ",
"                          + K ! _ ` ' A q %.%.&.;.;.%.;.%.; 3.j.2.2.6.2.6.6.0.X.3.N.2.2.;.2.2.;.2.} O.y.| f } w w } ..q.1 ! T.^ ^ ^ Z                           ",
"                          + L [ ` ~ / V 5 | %.%.1.1.%.%.1.; 1.l.&.%.&.;.2.2.6.} :.y.-.1.%.%.%.%.1.f d 6.} w e f X.f } 3.3 ) J.` ` ` D                           ",
"                          t U ' ^ ! / A < | $.} } | | } } - 1.6.$.%.&.&.&.;.;.e +.l...| } | $.$...w 0 ;.w w e e X.w X...: Y ' ^ ~ ` J                           ",
"                          t Y G.~ ~ ` Z < } } e h | } e f * | 4.| } | $.1...%.w #.k.| } f } } } } ; ; ;.w w w w w w e X.. U ` ` ^ G.J                           ",
"                          + U ' ! T Y N < e r r r e e e w $ X.<.} } } $.%.$.| w $.k.h e w r h } h 0 - $.e w w w w w w X.# G ! ` G.U.J                           ",
"                          t K ! Y W L n < r r w w e e 0 0 $ e &.h e e } | e } w ..4.e e 0 w e e w 8 * } w 8 w w 0 0 w } , D ) ` G.U.L                           ",
"                          + Z J J J A b 5 r w w 0 e r 8 0 $ w %.e r r e } e e 0 | &.e r w w w r w - $ e 8 7 8 8 0 ; 8 w > n Y Y Y T Z                           ",
"                          x + + + + + O $ - - - * * * * * % * w - - 7 - 7 - 7 * 7 r - 5 - * - - * $ % 7 * $ * $ * * $ * : @ O x x c c                           "
};
