/* XPM */
static char *_df4708cba9b4bb1a2935d578bfb07fcagcvWGuSvnKpK8Ic[] = {
/* columns rows colors chars-per-pixel */
"80 80 157 2 ",
"   c None",
".  c #000000",
"X  c #080708",
"o  c #0A0A0A",
"O  c #121212",
"+  c #1B1D1B",
"@  c #220C0C",
"#  c #1E201D",
"$  c #1F2120",
"%  c #212322",
"&  c #252826",
"*  c #272A29",
"=  c #2A2C2B",
"-  c #2E312E",
";  c #313533",
":  c #343936",
">  c #373C3A",
",  c #393E3C",
"<  c #3C413E",
"1  c #43453E",
"2  c #3E4340",
"3  c #414543",
"4  c #454946",
"5  c #484B46",
"6  c #464B48",
"7  c #4A4D4A",
"8  c #4D524D",
"9  c #51554F",
"0  c #4F5450",
"q  c #515652",
"w  c #555A55",
"e  c #595D57",
"r  c #575D59",
"t  c #5A5E59",
"y  c #5D625C",
"u  c #61655E",
"i  c #65685F",
"p  c #626660",
"a  c #656A62",
"s  c #6A6D65",
"d  c #6A6F69",
"f  c #6C7067",
"g  c #6D726A",
"h  c #72766C",
"j  c #75796E",
"k  c #797B6F",
"l  c #727670",
"z  c #767A71",
"x  c #7A7E73",
"c  c #787C72",
"v  c #7C7E71",
"b  c #7C7E73",
"n  c #7D7E73",
"m  c #797D74",
"M  c #7A7D74",
"N  c #797F74",
"B  c #797E75",
"V  c #7A7E74",
"C  c #7B7E74",
"Z  c #7A7F74",
"A  c #7A7E75",
"S  c #7B7E75",
"D  c #7A7F75",
"F  c #7B7F75",
"G  c #787E77",
"H  c #7A7F76",
"J  c #7A7F77",
"K  c #7C7F74",
"L  c #7D7F74",
"P  c #7C7F75",
"I  c #7A7D73",
"U  c #798076",
"Y  c #7B8076",
"T  c #7B8077",
"R  c #7B8177",
"E  c #7C8075",
"W  c #7F8175",
"Q  c #7C8076",
"!  c #7D8176",
"~  c #7C8077",
"^  c #7D8177",
"/  c #7D8077",
"(  c #7E8177",
")  c #7E8277",
"_  c #7D8175",
"`  c #7B8179",
"'  c #7C8178",
"]  c #7C8279",
"[  c #7D8278",
"{  c #7E8278",
"}  c #7F8278",
"|  c #7F8279",
" . c #7D837A",
".. c #7E837B",
"X. c #7E847A",
"o. c #7F857C",
"O. c #7F857D",
"+. c #7E8279",
"@. c #818377",
"#. c #808277",
"$. c #808378",
"%. c #808379",
"&. c #80847B",
"*. c #83857A",
"=. c #83867B",
"-. c #84877B",
";. c #80857C",
":. c #82857C",
">. c #80867D",
",. c #81877D",
"<. c #83867C",
"1. c #81877F",
"2. c #81857B",
"3. c #81887E",
"4. c #82887F",
"5. c #85887C",
"6. c #84887D",
"7. c #85897D",
"8. c #86897D",
"9. c #84887E",
"0. c #85887E",
"q. c #85897E",
"w. c #84897F",
"e. c #85897F",
"r. c #86897E",
"t. c #868A7F",
"y. c #878A7F",
"u. c #84887E",
"i. c #838981",
"p. c #828880",
"a. c #838A82",
"s. c #868A80",
"d. c #878B81",
"f. c #848A82",
"g. c #858C83",
"h. c #868C83",
"j. c #868D83",
"k. c #868D85",
"l. c #878E86",
"z. c #868B82",
"x. c #888C81",
"c. c #888C82",
"v. c #8A8E82",
"b. c #8A8E83",
"n. c #888D84",
"m. c #898F85",
"M. c #898E84",
"N. c #8C8F88",
"B. c #8B9085",
"V. c #8C9185",
"C. c #8B9186",
"Z. c #8D948A",
"A. c #8D9389",
"S. c #90958C",
"D. c #93988E",
"F. c #959A91",
"G. c #989D93",
/* pixels */
"                                                                                                                                                                ",
"                                                                                                                                                                ",
"                                                                                                                                                                ",
"                                                                                                                                                                ",
"                                                                                                                                                                ",
"                                                                                                                                                                ",
"                                                                                                                                                                ",
"                                                                                                                                                                ",
"                                                                    y r r r r r r r r r                                                                         ",
"                                                                  a k.a.z.;.p.z.g.a.k.a.h                                                                       ",
"                                                                8 n.h.3.z.z.s.9.9.' ' D D u                                                                     ",
"                                                                8 3.x E :.K K %.K g d d d w                                                                     ",
"                                                                8 D z D E b K %.D a s d d 7                                                                     ",
"                                                                < g D m x b K E K s a d i 4                                                                     ",
"                                                                  u x j z b k %.K h s a w                                                                       ",
"                                                                  w x j K x h E z h d l y 3                                                                     ",
"                                                            q y 6 q h k ( j l P z z z g r q a w                                                                 ",
"                                        w t             y j j.O.a 5 a z h s d D K m D h q l Z.B...a 8         g p                                               ",
"                                      y z D u       y g o.U j h a 3 t l h h h z h z E g w U ] h l ;.] y 6   s E V.h                                             ",
"                                    d D ;.E h t 6 a g.o.l l g g g 6 w ( %.z ;.K S m D g r O.z g d g D a.w y ) B.7.B.g 6                                         ",
"                                  p o.z z z z g y l O.U m ] E j h w t ' E %.%.' K z h d y O.z z g g h h 9 E V.x.9.@.E d 4                                       ",
"                                w  .j z j h h z g q g O. .z z j g y q g h x z x K l h u a o.h z j h h w w 3.t.7.7.*.@.z u                                       ",
"                              3 p o.g z m D m D  .a w z l z z y 8 ; ; 3 3 4 4 3 4 3 1 : 4 y g x l z s q 3.5.t.5.9.-.7.9.h                                       ",
"                                4 i h j h j z h z E w y j u 5 o . . . . . . . . . . . . . . - 8 a g w j y.@.@.@.K ' h.j q                                       ",
"                                  7 y E z z j j z U g 4 ; O . . . . . . . . . . . . . . . . . . & , t 7.9.-.@.%.@.' z q                                         ",
"                                  6 8 y j l j z E j q O . . . . . . . . . . . . . . . . . . . . . . , K *.z ' 9.9.g 9 t                                         ",
"                                  a z w d j h h j 8 O . . . . . . . . . . . . . . . . . . . . . . . X - u s z ' d 8 D h 8                                       ",
"                                t h.3.g 0 g j a 7 O . . . . . . . . . . . . . . . . . . . . . . . . . . = t a y 9 h *.' i ,                                     ",
"                              7 ;.o.j o.w 7 y 4 O . . . . . . . . . . . . . . . . . . . . . . . . . . . . = 4 8 D 3.%.;.@.t                                     ",
"                              d E j j x j w : O . . . . . . . . . . . . . . . . . . . . . . . . . . . . . . & a ;.*.7.3.@.h 7                                   ",
"                            8 z j k E ) @.y O . . . . . . . . . . . . . . . . . . . . . . . . . . . . . . . X 1 h K ;.*.E k y                                   ",
"                            4 a h j x E g + . . . . . . . . . . . . . . . . . . . . . . . . . . . . . . . . . . 9 W %.k x h 9 4                                 ",
"                          d a q y s h *.w X . . . . . . . . . . . . . . . . . . . . . . . . . . . . . . . . . . - s x g i w w t                                 ",
"                          a *.n d a d h # . . . . . . . . . . . . . . . . . . . . . . . . . . . . . . . . . . . . 4 u y a g j y                                 ",
"                          h h h E E d 5 o . . . . . . . . . . . . . . . . . . . . . . . . . . . . . . . . . . . . % q h @.j h f 8                               ",
"                          z h k g j h = . . . . . . . . . . . . . . . . . . . . . . . . . . . . . . . . . . . . . . y j h h j j a                               ",
"                        1 k h h j h s % . . . . . . . . . . . . . . . . . . . . . . . . . . . . . . . . . . . . . . q g h h h k s                               ",
"                        1 z k h h h u + . . . . . . . . . . . . . . . . . . . . . . . . . . . . . . . . . . . . . . 4 h h h j k a                               ",
"                        7 p a i a u - . . . . . . . . . . . . . . . . . . . . . . . . . . . . . . . . . . . . . . . o q i i i i y ,                             ",
"                      %.d h d d g y % . . . . . . . . . . . . . . . . . . . . . . . . . . . . . . . . . . . . . . . X 6 p a u y a l                             ",
"                < t d :.b.n.n.N.A.g $ . . . . . . . . . . . . . . . . . . . . . . . . . . . . . . . . . . . . . . . X 4 O.j.3.3.S.b.:.n a 3                     ",
"                3 d l l h a s g z a $ . . . . . . . . . . . . . . . . . . . . . . . . . . . . . . . . . . . . . . . X 3 l U x @.:.m h j u 3                     ",
"                < J m z S h d s j p $ . . . . . . . . . . . . . . . . . . . . . . . . . . . . . . . . . . . . . . . X 8 ;.z x *.9.S z k p 3                     ",
"                , :.z m %.s.9.k g i $ . . . . . . . . . . . . . . . . . . . . . . . . . . . . . . . . . . . . . . . X 8 ;.g k D ( S K W u 2                     ",
"                < S j S K %.*.@.j u $ . . . . . . . . . . . . . . . . . . . . . . . . . . . . . . . . . . . . . . . X 9 n.h k x ( P m K u 3                     ",
"                , g l K K m K W z u $ . . . . . . . . . . . . . . . . . . . . . . . . . . . . . . . . . . . . . . . . q Z.D m D P K m h u 3                     ",
"                2 a g s g g s l x u $ . . . . . . . . . . . . . . . . . . . . . . . . . . . . . . . . . . . . . . . X 8 c.z h g z h d s t 3                     ",
"                , p a p p a a g h y $ . . . . . . . . . . . . . . . . . . . . . . . . . . . . . . . . . . . . . . . X 7 :.h h a s a a y q 2                     ",
"                2 q w w w w w w w q % . . . . . . . . . . . . . . . . . . . . . . . . . . . . . . . . . . . . . . . X 2 w w w w w w q 9 6 <                     ",
"                  , 3 2 4 q t t w 7 % . . . . . . . . . . . . . . . . . . . . . . . . . . . . . . . . . . . . . . . X < q y u r 7 2 , 2 < <                     ",
"                        q s.F.F.8.a $ . . . . . . . . . . . . . . . . . . . . . . . . . . . . . . . . . . . . . . . X 7 ;.n.Z...i <                             ",
"                        t n.N.s.W s $ . . . . . . . . . . . . . . . . . . . . . . . . . . . . . . . . . . . . . . . . 0 S.z h g u 2                             ",
"                        q W n.9.k i % . . . . . . . . . . . . . . . . . . . . . . . . . . . . . . . . . . . . . . . X q A.z z z i <                             ",
"                        7 h ( ( #.s % . . . . . . . . . . . . . . . . . . . . . . . . . . . . . . . . . . . . . . . . q n.h z h d <                             ",
"                        9 d n W W a $ . . . . . . . . . . . . . . . . . . . . . . . . . . . . . . . . . . . . . . . X 7 %.g d d i 2                             ",
"                        7 s n W k u $ . . . . . . . . . . . . . . . . . . . . . . . . . . . . . . . . . . . . . . . X 7 ' d u a y 2                             ",
"                        q h h h f y % . . . . . . . . . . . . . . . . . . . . . . . . . . . . . . . . . . . . . . . X 4 j f y y t 3                             ",
"                        8 d d i p e $ . . . . . . . . . . . . . . . . . . . . . . . . . . . . . . . . . . . . . . . X 4 g g a p t 2                             ",
"                        4 t w w 6 4 % . . . . . . . . . . . . . . . . . . . . . . . . . . . . . . . . . . . . . . . X 2 r t r t w ,                             ",
"                < 5 0 w q q w q 8 7 $ . . . . . . . . . . . . . . . . . . . . . . . . . . . . . . . . . . . . . . . X < 0 0 q w q 8 q q q 4                     ",
"                , d c.S.F.F.G.S.A.z $ . . . . . . . . . . . . . . . . . . . . . . . . . . . . . . . . . . . . . . . X 7 Z.n.B.n.x.%.9.E d 2                     ",
"                > h b j j x K K j y $ . . . . . . . . . . . . . . . . . . . . . . . . . . . . . . . . . . . . . . . X 9 a.a d g h x %.E y 2                     ",
"                : l z b b E K z x y $ . . . . . . . . . . . . . . . . . . . . . . . . . . . . . . . . . . . . . . . . 8 W u i h @.x.o.W p 2                     ",
"                , z j x %.*.b h h y $ . . . . . . . . . . . . . . . . . . . . . . . . . . . . . . . . . . . . . . . X q b.f a h %.x.E x p 6                     ",
"                <  .m m 3.*.k f h u # . . . . . . . . . . . . . . . . . . . . . . . . . . . . . . . . . . . . . . . X q S.j j W b W x z u 3                     ",
"                , D E m E E b h g u $ . . . . . . . . . . . . . . . . . . . . . . . . . . . . . . . . . . . . . . . . 0 Z.) ) @.#.k h k i 5                     ",
"                , l K z #.@.x h g t $ . . . . . . . . . . . . . . . . . . . . . . . . . . . . . . . . . . . . . . . X 8 7.E E k @.*.j g p 3                     ",
"                , g b x k x f a d w % . . . . . . . . . . . . . . . . . . . . . . . . . . . . . . . . . . . . . . . . 6 D E ' z k *.z g q 2                     ",
"                3 w d a a y y r t q % . . . . . . . . . . . . . . . . . . . . . . X . . X . . X . . X . . . . X . . o < w y p y u p r 0 6 2                     ",
"                  4 7 7 4 6 q q q 7 % . . . . . . . . . . . . . . . . X . X o o o X X o o o X X o X X X o X X X X X O < 6 8 8 q 8 6 2 : : ,                     ",
"                        8 D n.z.*.a # . . . . . . . . . . . . . X X o o o o o o o o o o o o o X o o o X o X X X X o O 6 E k.Z.7.a 2                             ",
"                        8 f g m K d $ . . . . . . . . . . . X o o o o o o o o o o X X o X X X X X X . X X X . X X o o 8 h.j g h p 2                             ",
"                        8 h h x k s $ . . . . . . . X X X o o o o o o o X X X o o . . X X o X X . X . X X . X X X o o w A.h j j p 2                             ",
"                        9 z z l h d $ . . . . . . X o o o o o o o o X X X X X X o X X X . . .             X X X X o O q k.h z z p 2                             ",
"                        q K z g j s $ . . . X o o o o o o o o o X . X X X X X X X                                   O 8 o.g g j g 2                             ",
"                        w P z h j a % . . X o o o o o o X X o X X X . X X                                             8 E j z z h 2                             ",
"                        q D h d a t & X o o O o o o o o o o o o X                                                     7 h j E o.h 2                             ",
"                        9 g a a i w * o o O o o o o o o o o O o                                                       8 g j E 3.h 2                             ",
"                        5 u r r t 8 = O O O O o o o o o O O                                                           2 p p a a y 2                             ",
"                        , , 2 2 > > = O O O O @ @ o o O                                                               : > < 2 2 4 2                             "
};
