/* XPM */
static char *_39913c380004690e7e1bce4a2084b7dMF7DoYZdmYNhWDsp[] = {
/* columns rows colors chars-per-pixel */
"80 80 173 2 ",
"   c None",
".  c #060504",
"X  c #101519",
"o  c #181818",
"O  c #0B293E",
"+  c #0A273A",
"@  c #272727",
"#  c #2F2F2F",
"$  c #343434",
"%  c #3C3C3C",
"&  c #0D2F48",
"*  c #0A2E45",
"=  c #183244",
"-  c #0F3652",
";  c #103A57",
":  c #113E5E",
">  c #25455A",
",  c #124264",
"<  c #13466A",
"1  c #14496D",
"2  c #164D74",
"3  c #17527B",
"4  c #1B547B",
"5  c #294C63",
"6  c #2B526D",
"7  c #3E5769",
"8  c #3D5A6E",
"9  c #2E5875",
"0  c #3F667F",
"q  c #444444",
"w  c #4C4C4C",
"e  c #4F565C",
"r  c #525252",
"t  c #595959",
"y  c #485965",
"u  c #5C6164",
"i  c #43637A",
"p  c #506776",
"a  c #5D6B74",
"s  c #636363",
"d  c #6C6C6C",
"f  c #6C767B",
"g  c #757575",
"h  c #757779",
"j  c gray48",
"k  c #175681",
"l  c #185681",
"z  c #165886",
"x  c #195884",
"c  c #1A5D8C",
"v  c #165F91",
"b  c #285C80",
"n  c #1B6293",
"m  c #1D6699",
"M  c #1D699E",
"N  c #2F6081",
"B  c #386889",
"V  c #346587",
"C  c #296690",
"Z  c #2B6A96",
"A  c #36729B",
"S  c #3F769C",
"D  c #1E6CA2",
"F  c #1F70A9",
"G  c #1F74B0",
"H  c #2072AB",
"J  c #2C73A5",
"K  c #3B79A3",
"L  c #367CAD",
"P  c #2176B1",
"I  c #2279B5",
"U  c #237DBB",
"Y  c #56778F",
"T  c #437191",
"R  c #477799",
"E  c #4A7B9D",
"W  c #5A7F99",
"Q  c #697A86",
"!  c #2480BF",
"~  c #3B85B9",
"^  c #3784B9",
"/  c #7D8285",
"(  c #6F8290",
")  c #6D8799",
"_  c #61849C",
"`  c #7A8C99",
"'  c #7C909E",
"]  c #4D87AF",
"[  c #4483AF",
"{  c #4287B6",
"}  c #5F90B2",
"|  c #5193BF",
" . c #7D9BAF",
".. c #6897B8",
"X. c #2583C4",
"o. c #2B85C3",
"O. c #2687C9",
"+. c #2789CD",
"@. c #2A8BCF",
"#. c #278BD1",
"$. c #288ED4",
"%. c #2990D7",
"&. c #2790D8",
"*. c #2992DB",
"=. c #3C97D6",
"-. c #2B97E2",
";. c #2C99E5",
":. c #2D9EEC",
">. c #2795E1",
",. c #2EA0EF",
"<. c #2FA4F5",
"1. c #2FA6F8",
"2. c #30A6F8",
"3. c #4D95C6",
"4. c #649FC9",
"5. c #858585",
"6. c #8C8C8C",
"7. c #8A9197",
"8. c #87929A",
"9. c #949494",
"0. c #9C9C9C",
"q. c #8797A2",
"w. c #829BAC",
"e. c #8A9BA7",
"r. c #929DA4",
"t. c #9A9EA1",
"y. c #9FAAB1",
"u. c #9FAFBB",
"i. c #95ABBA",
"p. c #A3A3A3",
"a. c #AAA8A7",
"s. c #ABABAB",
"d. c #A3ABB2",
"f. c #ACAEB0",
"g. c #ADB2B6",
"h. c #B3B4B4",
"j. c #B4B7B9",
"k. c #B5B9BB",
"l. c #BCBCBC",
"z. c #AABAC6",
"x. c #B4C2CD",
"c. c #BDC0C3",
"v. c #BFCAD2",
"b. c #C4C4C4",
"n. c #C5C6C8",
"m. c #CBCBCB",
"M. c #C3C8CB",
"N. c #CBCFD2",
"B. c #C6CCD0",
"V. c #CBD1D5",
"C. c #D4D4D4",
"Z. c #D8D6D5",
"A. c #D5D7D9",
"S. c #DBDCDC",
"D. c #D7DBDD",
"F. c #DADFE3",
"G. c #E3E4E3",
"H. c #E6E7E9",
"J. c #EBEBEB",
"K. c #E6E9EB",
"L. c #F0EFEE",
"P. c #F0F0F0",
"I. c #F5F5F5",
"U. c #F7F7F7",
"Y. c #F6F5F5",
"T. c #F4F4F4",
"R. c #FAFAF9",
"E. c #FDFDFD",
"W. c #FEFEFE",
"Q. c white",
"!. c #FFFEFE",
"~. c #FFFFFF",
"^. c #F0F5F9",
/* pixels */
"                                                                                                                                                                ",
"                                                                          q w h 6.6.j r q                                                                       ",
"                                                                      d h.G.P.U.R.R.R.P.J.G.b.9.j                                                               ",
"                                                                    5.J.E.E.E.E.E.E.E.E.E.E.E.E.P.n.9.r                                                         ",
"                                                                  q G.E.E.E.E.E.E.E.E.E.E.E.E.E.E.E.E.S.0.%                                                     ",
"                                                                  q P.E.E.E.E.E.E.E.E.E.E.E.E.E.E.E.E.E.E.m.h                                                   ",
"                                                                  q S.E.E.E.E.E.E.E.E.E.E.E.E.E.E.E.E.E.E.E.J.6.                                                ",
"                                                                    5.U.E.E.E.E.E.E.E.E.E.E.E.E.E.E.E.E.E.E.E.P.5.                                              ",
"                                                                      0.L.E.E.E.E.E.E.E.E.E.E.E.E.E.E.E.E.E.E.E.J.g                                             ",
"                                                                        h m.R.E.E.E.E.E.E.E.E.E.E.E.E.E.E.E.E.E.E.b.                                            ",
"                                                                          $ 5.n.S.J.E.E.E.E.E.E.E.E.E.E.E.E.E.E.E.R.s                                           ",
"                                                                    s 9.9.j o @ s 0.p.h.S.U.E.E.E.E.E.E.E.E.E.E.E.E.p.                                          ",
"                                                                  j F.E.E.P.l.j p.G.C.b.n.n.S.P.E.E.E.E.E.E.E.E.E.E.b.                                          ",
"                                                                  s.U.R.E.E.E.U.h.p.J.E.E.E.E.E.E.E.E.E.E.E.E.E.E.E.n.                                          ",
"                                                                  B } i.P.E.E.E.E.C.0.C.E.E.E.E.E.E.E.E.E.E.E.E.E.E.m.                                          ",
"                                                                V K @.^ f.E.E.E.E.E.S.6.Z.E.E.E.E.E.E.E.E.E.E.E.E.E.n.                                          ",
"                                                              r.F.N.K #.` U.E.E.E.E.E.J.h.J.E.E.E.E.E.E.E.E.E.E.E.E.l.                                          ",
"                                                            n.R.E.G.[ *.Z ) D.E.E.E.E.E.J.S.E.E.E.E.E.E.E.E.E.E.E.E.0.                                          ",
"                                          : n m n         g l.E.E.z.$.:.*.#.S d.R.E.E.E.E.J.J.E.E.E.E.E.E.E.E.E.E.E.h                                           ",
"                                        , +.1.1.:.+.l     o s U.F.3.:.<.1.2.:.J ` J.E.E.E.E.U.E.E.E.E.E.E.E.E.E.E.R.s                                           ",
"                                        D 2.2.<.1.<.;.I X . 6.H...;.<.<.<.<.1.<.O.W Z.E.E.E.E.E.E.E.E.E.E.E.E.E.E.G.s                                           ",
"                                        #.2.<.<.<.<.1.;.= % d.4.;.<.<.<.<.<.<.<.2.*.E B.E.E.E.E.E.E.E.E.E.E.E.E.E.b.                                            ",
"                                        U 2.<.<.<.<.<.<.o.3.=.:.<.<.<.<.<.<.<.<.<.1.;.[ v.E.E.E.E.E.E.E.E.E.E.E.E.p.                                            ",
"                                        3 :.2.<.<.<.<.<.<.1.<.<.<.<.<.<.<.<.<.<.<.<.<.<.{ z.E.E.E.E.E.E.E.E.E.E.L.h                                             ",
"                                          D -.<.2.2.2.,.<.<.<.<.<.<.<.<.<.<.<.<.<.<.<.1.:.~ z.J.D.n.N.L.E.E.E.E.Z.                                              ",
"                                            1 I ! O.O.*.<.<.<.<.<.<.<.1.<.<.<.<.<.<.<.<.1.;.L ] { ~ A _ k.U.E.E.9.                                              ",
"                                                      O.<.<.<.<.<.,.o.$.<.<.<.1.<.<.<.<.1.:.:.1.1.1.1.-.^ e.R.Z.q                                               ",
"                                                      $.2.1.<.2.2.<.$.Z X.1.<.<.<.<.<.<.<.<.1.1.1.<.<.2.1.L f.5.                                                ",
"                                                      M $.;.:.;.*.$.P H O.:.1.1.<.<.<.<.<.<.-.%.-.<.2.<.1.%.8                                                   ",
"                                                            n c     n ;.:.:.<.<.<.<.<.;.U H I H U U O.:.2.,.3                                                   ",
"                                                                  ! :.2.<.<.<.<.<.<.<.<.+.Z H %.,.-.%.#.:.:.l                                                   ",
"                                                          : D I %.1.<.<.<.<.<.<.<.<.<.<.1.<.U D :.2.<.<.:.%.,                                                   ",
"                                                          F <.2.1.<.<.<.<.<.<.<.<.<.;.*.-.<.2.H +.2.<.<.2.D                                                     ",
"                                                          , H :.1.<.<.<.<.2.<.<.<.<.;.*.X.H X.m +.2.<.2.#.-                                                     ",
"                                                              m ;.2.1.<.<.<.<.<.<.<.:.O.-.O.U -.<.2.<.$.<                                                       ",
"                                                                c #.:.2.2.<.<.<.<.1.2.;.H O.;.<.<.*.U ,                                                         ",
"                                                                    D I $.:.<.<.<.<.<.X.c   c H D 1                                                             ",
"                                                                        x O.$.:.<.<.<.D                                                                         ",
"                                                                      l *.<.:.2.<.<.1.I                                                                         ",
"                                                                    , $.<.#.-.<.<.1.1.*.                                                                        ",
"                                                                    O.2.$.O.<.<.<.<.<.:.<                                                                       ",
"                                                                  m <.-.I :.2.<.<.*.<.<.m                                                                       ",
"                                                                  %.,.P $.2.1.1.$.O.<.<.U                                                                       ",
"                                                                m 2.U U <.<.1.-.I :.<.<.*.,                                                                     ",
"                                                                #.#.Z :.1.<.:.P *.1.<.<.<.M <                                                                   ",
"                                        +                     2 I c *.<.<.<.I U <.<.<.<.2.H P 2                                                                 ",
"                                      3 #.U *                 , D $.<.<.1.O.D :.<.<.<.<.<.*.D O.                                                                ",
"                                      c <.2.U 2 -           c O.2.2.<.2.>.c &.1.<.<.<.<.<.,.H +.:                                                               ",
"                                        n *.<.;.-.! , O x +.<.1.<.<.1.;.n U 1.1.<.<.<.<.2.2.U I M                                                               ",
"                                          2 I -.1.1.*.U :.1.<.<.1.:.X.c I :.<.1.<.<.<.<.<.2.*.H m                                                               ",
"                                - x 3 x H *.:.<.<.<.1.1.1.1.1.>.F m D *.2.2.1.1.1.1.1.1.<.:.:.l c                                                               ",
"                              & O.,.1.1.2.<.,.1.<.<.<.<.,.+.J i 8 A o.X.O.*.*.*.&.+.X.o.~ R Y Q b 1                                                             ",
"                              O H *.-.@.! #.:.2.<.<.1.<.U * e J.J.V.d.7.8.w. . .w.q.7.d.V.J.R.Z.N <                                                             ",
"                                : M m H *.:.2.<.<.<.1.#.-   p G.E.E.E.E.E.E.R.R.E.E.E.E.E.E.E.G.9 z                                                             ",
"                                x ,.,.<.:.*.+.*.,.1.%.,     5 j.E.E.E.E.E.E.E.E.E.E.E.E.E.E.E.G.5 D ,                                                           ",
"                                  x H I m H -.<.;.X.:         f U.E.E.E.E.E.E.E.E.E.E.E.E.E.E.c.Z :.-.n                                                         ",
"                                    n +.*.:.-.X.l O           > g.E.E.E.E.E.E.E.E.E.E.E.E.E.E.Q +.2.1.U                                                         ",
"                                    ; n D n :                   y n.E.E.E.E.E.E.E.E.E.E.E.E.k.9 :.:.O.3                                                         ",
"                                                                  y k.U.U.R.E.E.E.E.E.E.U.h.B %.-.O.#.m                                                         ",
"                                                                  y.( f h S.E.E.E.E.G.0.Q C X.,.$.$.1.I                                                         ",
"                                                                g R.^.B.` t.E.E.E.E.J.u z :.! -.$.U <.F                                                         ",
"                                              6.s.0.9.w         p.E.E.E.U.9.G.E.E.E.E.m.V -.M *.O.F ;.n                                                         ",
"                                            b.E.E.E.R.F.s.s     n.E.E.E.P.d 0.E.E.E.E.E.d.S 4 :.U 4 E a g                                                       ",
"                                          9.E.E.E.E.E.E.E.J.s.r C.E.E.E.S.% w G.E.E.E.E.E.S.r.T 6 / F.R.J.s.                                                    ",
"                                          m.E.E.E.E.E.E.E.E.E.0.S.E.E.E.n.    9.U.E.E.E.E.E.E.H.s.0.b.T.E.E.h.                                                  ",
"                                          n.E.E.E.E.E.E.E.E.E.0.G.E.E.E.p.      0.J.E.E.E.E.E.E.E.T.n.J.E.E.J.w                                                 ",
"                                          6.E.E.E.E.E.E.E.E.E.p.J.E.E.E.6.        j n.R.E.E.E.E.E.E.E.E.E.E.P.t                                                 ",
"                                            h.E.E.E.E.E.E.E.E.G.R.E.E.E.9.w           s l.S.E.E.E.E.E.E.E.E.S.                                                  ",
"                                              h.E.E.E.E.E.E.E.E.E.E.E.E.s.m.d         9.l.p.l.P.E.E.E.E.E.E.9.                                                  ",
"                                                6.G.E.E.E.E.E.E.E.E.E.P.l.U.C.      s.E.E.R.J.R.E.E.E.E.E.l.                                                    ",
"                                                  s l.P.E.E.E.E.E.E.E.R.J.E.J.q   0.R.E.E.E.E.E.E.E.E.E.S.t                                                     ",
"                                                      h n.U.E.E.E.E.E.E.E.E.G.$ 5.U.E.E.E.E.E.E.E.E.E.G.d                                                       ",
"                                                          h c.J.E.E.E.E.E.E.s.t G.E.E.E.E.E.E.E.E.E.J.h                                                         ",
"                                                              d p.Z.U.E.U.b.w s.E.E.E.E.E.E.E.E.E.J.h                                                           ",
"                                                                    s d s   # S.E.E.E.E.E.E.E.E.G.j                                                             ",
"                                                                              n.E.E.E.E.E.E.E.S.g                                                               ",
"                                                                              5.U.E.E.E.E.E.l.t                                                                 ",
"                                                                                9.J.R.U.S.9.                                                                    ",
"                                                                                  w 6.h w                                                                       ",
"                                                                                                                                                                "
};
