/* XPM */
static char *_0fc6744a92349fedd2006e64efb4d2b03QGpTPTcpgF98ju[] = {
/* columns rows colors chars-per-pixel */
"80 80 173 2 ",
"   c None",
".  c #060504",
"X  c #101519",
"o  c #181818",
"O  c #0B293E",
"+  c #0A273A",
"@  c #272727",
"#  c #2F2F2F",
"$  c #343434",
"%  c #3C3C3C",
"&  c #0D2F48",
"*  c #0A2E45",
"=  c #183244",
"-  c #0F3652",
";  c #103A57",
":  c #113E5E",
">  c #25455A",
",  c #124264",
"<  c #13466A",
"1  c #14496D",
"2  c #164D74",
"3  c #17527B",
"4  c #1B547B",
"5  c #294C63",
"6  c #2B526D",
"7  c #3E5769",
"8  c #3D5A6E",
"9  c #2E5875",
"0  c #3F667F",
"q  c #444444",
"w  c #4C4C4C",
"e  c #4F565C",
"r  c #525252",
"t  c #595959",
"y  c #485965",
"u  c #5C6164",
"i  c #43637A",
"p  c #506776",
"a  c #5D6B74",
"s  c #636363",
"d  c #6C6C6C",
"f  c #6C767B",
"g  c #757575",
"h  c #757779",
"j  c gray48",
"k  c #175681",
"l  c #185681",
"z  c #165886",
"x  c #195884",
"c  c #1A5D8C",
"v  c #165F91",
"b  c #285C80",
"n  c #1B6293",
"m  c #1D6699",
"M  c #1D699E",
"N  c #2F6081",
"B  c #386889",
"V  c #346587",
"C  c #296690",
"Z  c #2B6A96",
"A  c #36729B",
"S  c #3F769C",
"D  c #1E6CA2",
"F  c #1F70A9",
"G  c #1F74B0",
"H  c #2072AB",
"J  c #2C73A5",
"K  c #3B79A3",
"L  c #367CAD",
"P  c #2176B1",
"I  c #2279B5",
"U  c #237DBB",
"Y  c #56778F",
"T  c #437191",
"R  c #477799",
"E  c #4A7B9D",
"W  c #5A7F99",
"Q  c #697A86",
"!  c #2480BF",
"~  c #3B85B9",
"^  c #3784B9",
"/  c #7D8285",
"(  c #6F8290",
")  c #6D8799",
"_  c #61849C",
"`  c #7A8C99",
"'  c #7C909E",
"]  c #4D87AF",
"[  c #4483AF",
"{  c #4287B6",
"}  c #5F90B2",
"|  c #5193BF",
" . c #7D9BAF",
".. c #6897B8",
"X. c #2583C4",
"o. c #2B85C3",
"O. c #2687C9",
"+. c #2789CD",
"@. c #2A8BCF",
"#. c #278BD1",
"$. c #288ED4",
"%. c #2990D7",
"&. c #2790D8",
"*. c #2992DB",
"=. c #3C97D6",
"-. c #2B97E2",
";. c #2C99E5",
":. c #2D9EEC",
">. c #2795E1",
",. c #2EA0EF",
"<. c #2FA4F5",
"1. c #2FA6F8",
"2. c #30A6F8",
"3. c #4D95C6",
"4. c #649FC9",
"5. c #858585",
"6. c #8C8C8C",
"7. c #8A9197",
"8. c #87929A",
"9. c #949494",
"0. c #9C9C9C",
"q. c #8797A2",
"w. c #829BAC",
"e. c #8A9BA7",
"r. c #929DA4",
"t. c #9A9EA1",
"y. c #9FAAB1",
"u. c #9FAFBB",
"i. c #95ABBA",
"p. c #A3A3A3",
"a. c #AAA8A7",
"s. c #ABABAB",
"d. c #A3ABB2",
"f. c #ACAEB0",
"g. c #ADB2B6",
"h. c #B3B4B4",
"j. c #B4B7B9",
"k. c #B5B9BB",
"l. c #BCBCBC",
"z. c #AABAC6",
"x. c #B4C2CD",
"c. c #BDC0C3",
"v. c #BFCAD2",
"b. c #C4C4C4",
"n. c #C5C6C8",
"m. c #CBCBCB",
"M. c #C3C8CB",
"N. c #CBCFD2",
"B. c #C6CCD0",
"V. c #CBD1D5",
"C. c #D4D4D4",
"Z. c #D8D6D5",
"A. c #D5D7D9",
"S. c #DBDCDC",
"D. c #D7DBDD",
"F. c #DADFE3",
"G. c #E3E4E3",
"H. c #E6E7E9",
"J. c #EBEBEB",
"K. c #E6E9EB",
"L. c #F0EFEE",
"P. c #F0F0F0",
"I. c #F5F5F5",
"U. c #F7F7F7",
"Y. c #F6F5F5",
"T. c #F4F4F4",
"R. c #FAFAF9",
"E. c #FDFDFD",
"W. c #FEFEFE",
"Q. c white",
"!. c #FFFEFE",
"~. c #FFFFFF",
"^. c #F0F5F9",
/* pixels */
"                                                                                                                                                                ",
"                                                                      q r j 6.6.g w w                                                                           ",
"                                                              j 9.b.S.J.P.Y.Y.Y.T.L.H.s.d                                                                       ",
"                                                        r 9.m.J.Q.Q.Q.Q.Q.Q.Q.Q.Q.Q.Q.Q.H.5.                                                                    ",
"                                                    % 9.S.Q.Q.Q.Q.Q.Q.Q.Q.Q.Q.Q.Q.Q.Q.Q.Q.G.q                                                                   ",
"                                                  g m.Q.Q.Q.Q.Q.Q.Q.Q.Q.Q.Q.Q.Q.Q.Q.Q.Q.Q.P.q                                                                   ",
"                                                5.J.Q.Q.Q.Q.Q.Q.Q.Q.Q.Q.Q.Q.Q.Q.Q.Q.Q.Q.Q.S.q                                                                   ",
"                                              5.P.Q.Q.Q.Q.Q.Q.Q.Q.Q.Q.Q.Q.Q.Q.Q.Q.Q.Q.Q.P.5.                                                                    ",
"                                            g H.Q.Q.Q.Q.Q.Q.Q.Q.Q.Q.Q.Q.Q.Q.Q.Q.Q.Q.Q.P.0.                                                                      ",
"                                            b.Q.Q.Q.Q.Q.Q.Q.Q.Q.Q.Q.Q.Q.Q.Q.Q.Q.Q.R.m.g                                                                         ",
"                                          s R.Q.Q.Q.Q.Q.Q.Q.Q.Q.Q.Q.Q.Q.Q.Q.J.C.b.5.$                                                                           ",
"                                          0.Q.Q.Q.Q.Q.Q.Q.Q.Q.Q.Q.Q.Y.S.h.0.p.s @ o j 9.9.s                                                                     ",
"                                          l.Q.Q.Q.Q.Q.Q.Q.Q.Q.Q.J.S.m.n.b.C.S.a.j k.P.Q.Q.G.j                                                                   ",
"                                          m.Q.Q.Q.Q.Q.Q.Q.Q.Q.Q.Q.Q.R.Q.Q.H.p.h.Y.Q.Q.Q.R.T.a.                                                                  ",
"                                          m.Q.Q.Q.Q.Q.Q.Q.Q.Q.Q.Q.Q.Q.Q.C.9.C.Q.Q.Q.Q.L.i.} B                                                                   ",
"                                          m.Q.Q.Q.Q.Q.Q.Q.Q.Q.Q.Q.Q.Q.C.6.S.Q.Q.Q.Q.Q.d.^ $.K N                                                                 ",
"                                          k.Q.Q.Q.Q.Q.Q.Q.Q.Q.Q.Q.Q.J.h.H.Q.Q.Q.Q.Q.Y.` #.K m.F.r.                                                              ",
"                                          0.Q.Q.Q.Q.Q.Q.Q.Q.Q.Q.Q.E.C.J.Q.Q.Q.Q.Q.A.) Z *.[ H.Q.R.n.                                                            ",
"                                          g E.Q.Q.Q.Q.Q.Q.Q.Q.Q.Q.J.J.Q.Q.Q.Q.Y.d.S $.%.:.$.z.Q.E.l.g         v m n :                                           ",
"                                          s Y.Q.Q.Q.Q.Q.Q.Q.Q.Q.Q.Y.Q.Q.Q.Q.H.' J :.1.<.1.:.3.F.R.s o     l +.:.2.<.+.,                                         ",
"                                          s H.Q.Q.Q.Q.Q.Q.Q.Q.Q.Q.Q.Q.Q.Q.A.W O.<.1.<.<.<.1.-...H.6.. X P ;.1.<.<.<.2.D                                         ",
"                                            l.Q.Q.Q.Q.Q.Q.Q.Q.Q.Q.Q.Q.Q.B.E %.1.1.<.<.<.<.<.<.;.4.d.% = ;.1.<.<.<.<.<.$.                                        ",
"                                            p.Q.Q.Q.Q.Q.Q.Q.Q.Q.Q.Q.Q.x.[ ;.<.<.<.<.<.<.<.<.<.1.<.=.3.o.<.<.<.<.<.<.2.X.                                        ",
"                                            g L.Q.Q.Q.Q.Q.Q.Q.Q.Q.Q.z.~ :.<.<.<.<.<.<.<.<.<.<.<.1.<.<.<.<.<.<.<.<.<.:.3                                         ",
"                                              C.Q.Q.Q.Q.L.C.n.D.J.z.{ <.1.<.<.<.<.<.<.<.<.<.<.<.<.<.<.<.,.<.1.1.<.;.D                                           ",
"                                              9.Q.Q.Y.k._ A ^ { ] L ;.<.<.<.<.<.<.<.<.<.<.<.<.<.<.<.<.<.*.+.+.X.P 1                                             ",
"                                              w A.U.e.^ ;.1.<.<.<.,.,.<.<.<.<.<.<.<.<.<.$.X.,.<.<.<.<.<.O.                                                      ",
"                                                5.s.L <.<.<.<.<.<.2.<.<.<.<.<.<.<.<.<.O.Z $.<.1.<.<.1.2.%.                                                      ",
"                                                  8 *.<.<.<.<.;.*.;.<.<.<.1.<.<.<.<.:.O.F I %.*.;.:.-.$.Z                                                       ",
"                                                  3 ,.<.:.O.U U H P H U ;.1.<.<.<.<.,.:.;.n     c n                                                             ",
"                                                  l :.:.$.%.;.,.$.H M +.,.<.<.<.<.<.<.<.1.:.U                                                                   ",
"                                                  , %.:.<.<.<.,.D U :.1.<.<.<.<.<.<.<.<.1.1.1.%.I D :                                                           ",
"                                                    D 1.<.<.1.+.H <.<.;.*.:.<.<.<.<.<.<.<.<.<.2.2.,.H                                                           ",
"                                                    - $.1.<.1.+.m o.H X.%.;.<.<.<.<.<.<.<.<.<.<.:.H ,                                                           ",
"                                                      1 $.1.1.<.-.U O.-.O.:.<.<.<.<.<.<.<.<.2.:.m                                                               ",
"                                                        , I *.<.<.;.O.H ;.<.<.<.<.<.<.<.<.,.#.c                                                                 ",
"                                                            1 D H c   c X.<.<.<.<.<.:.$.I M                                                                     ",
"                                                                        F <.<.<.:.$.X.c                                                                         ",
"                                                                        U <.<.<.<.<.<.*.k                                                                       ",
"                                                                        %.<.<.<.<.-.+.1.$.,                                                                     ",
"                                                                      < :.<.<.<.<.<.O.$.1.X.                                                                    ",
"                                                                      m <.<.*.<.<.<.:.I -.,.M                                                                   ",
"                                                                      U 2.<.O.%.<.<.<.%.I <.%.                                                                  ",
"                                                                    , %.<.<.:.I ;.2.<.<.! U <.m                                                                 ",
"                                                                  < D <.1.<.<.%.P ,.<.<.:.Z #.#.                                                                ",
"                                                                2 I H 2.<.<.<.<.I I <.<.1.*.c I 2                     +                                         ",
"                                                                O.D *.<.<.<.<.<.,.D +.<.1.<.&.D <                 * U $.3                                       ",
"                                                              : O.H ,.<.<.<.<.<.<.%.c ;.1.<.<.<.O.c           - 2 U <.<.c                                       ",
"                                                              M P X.<.<.<.<.<.<.<.1.U n :.1.1.1.2.<.+.x * , ! -.:.<.%.n                                         ",
"                                                              M H *.2.<.<.<.<.<.<.1.,.I c X.;.2.<.<.<.<.U %.<.<.;.P 2                                           ",
"                                                              c x ;.:.<.<.2.2.2.1.<.1.1.$.D m P *.<.<.<.<.<.1.<.<.:.*.H l l x ;                                 ",
"                                                            < b Q Y R ~ O.X.#.%.*.*.%.+.X.o.A 7 i J $.,.<.<.<.<.<.:.<.2.2.<.:.O.&                               ",
"                                                            < N Z.R.J.B.y.7.q.w. . .w.8.7.y.N.J.J.e * U 1.<.<.<.1.:.$.X.#.*.*.H O                               ",
"                                                            x 9 G.Q.Q.Q.Q.Q.Q.R.R.R.R.Q.Q.Q.Q.Q.G.p   - #.1.<.<.<.1.:.%.H m Z ,                                 ",
"                                                          , D 5 G.Q.Q.Q.Q.Q.Q.Q.Q.Q.Q.Q.Q.Q.Q.Q.j.5     , %.1.:.*.+.*.,.,.<.<.z                                 ",
"                                                        n -.:.Z z.Q.Q.Q.Q.Q.Q.Q.Q.Q.Q.Q.Q.Q.Q.^.f         : X.:.<.-.F m I F z                                   ",
"                                                        U 1.1.#.j R.Q.Q.Q.Q.Q.Q.Q.Q.Q.Q.Q.Q.Q.g.>           O l X.-.:.*.@.c                                     ",
"                                                        3 +.;.:.9 k.Q.E.Q.Q.Q.Q.Q.Q.Q.Q.Q.Q.n.y                   ; n D m ;                                     ",
"                                                        m $.O.-.*.0 h.T.Q.Q.Q.Q.Q.Q.R.Y.Y.j.y                                                                   ",
"                                                        G 1.$.$.<.O.C Q 0.F.R.Q.Q.Q.A.h f ( d.                                                                  ",
"                                                        H <.U $.-.U <.z u J.Q.Q.Q.Q.0.` v.^.U.g                                                                 ",
"                                                        v :.F O.*.D >.B m.Q.Q.Q.Q.G.9.U.Q.Q.Q.t.        w 9.p.a.6.                                              ",
"                                                      g a E 4 U ;.3 B d.R.Q.Q.Q.Q.0.g P.Q.Q.Q.m.    s a.S.R.Q.Q.Q.b.                                            ",
"                                                    s.J.R.G./ 6 T r.S.Q.Q.Q.Q.Q.F.q % Z.Q.Q.Q.C.r a.J.Q.Q.Q.Q.Q.Q.R.9.                                          ",
"                                                  h.Q.Q.Y.c.0.s.H.Q.Q.Q.Q.Q.Q.Y.9.    b.Q.Q.Q.S.0.E.Q.Q.Q.Q.Q.Q.Q.Q.m.                                          ",
"                                                w J.Q.Q.J.b.P.Q.Q.Q.Q.Q.Q.Q.Y.9.      a.Q.Q.Q.F.0.Q.Q.Q.Q.Q.Q.Q.Q.Q.b.                                          ",
"                                                t L.Q.Q.Q.Q.Q.Q.Q.Q.Q.Q.Y.b.j         5.Q.Q.Q.H.p.Q.Q.Q.Q.Q.Q.Q.Q.R.6.                                          ",
"                                                  S.Q.Q.Q.Q.Q.Q.Q.R.S.k.s           w 9.Q.Q.Q.R.G.Q.Q.Q.Q.Q.Q.Q.Q.k.                                            ",
"                                                  6.R.Q.Q.Q.Q.Q.P.k.a.h.9.        d m.s.R.Q.Q.Q.Q.Q.Q.Q.Q.Q.Q.R.h.                                              ",
"                                                    l.Q.Q.Q.Q.Q.Y.J.R.Q.E.a.      C.U.k.P.Q.Q.Q.Q.Q.Q.Q.Q.Q.H.5.                                                ",
"                                                    t S.Q.Q.Q.Q.Q.Q.Q.Q.Q.R.p.  q J.Q.J.R.Q.Q.Q.Q.Q.Q.Q.T.k.s                                                   ",
"                                                      d G.Q.Q.Q.Q.Q.Q.Q.Q.Q.P.5.$ H.Q.Q.Q.Q.Q.Q.Q.Q.U.b.g                                                       ",
"                                                        g J.Q.Q.Q.Q.Q.Q.Q.Q.Q.G.t s.Q.Q.Q.Q.Q.Q.J.l.g                                                           ",
"                                                          j H.Q.Q.Q.Q.Q.Q.Q.Q.Q.a.w l.U.Q.Y.C.a.d                                                               ",
"                                                            j H.Q.Q.Q.Q.Q.Q.Q.Q.S.#   s d u                                                                     ",
"                                                              d S.Q.Q.Q.Q.Q.Q.Q.m.                                                                              ",
"                                                                t l.Q.Q.Q.Q.Q.R.5.                                                                              ",
"                                                                    9.S.Y.Y.J.9.                                                                                ",
"                                                                      w h 6.w                                                                                   ",
"                                                                                                                                                                "
};
