/* XPM */
static char *result[] = {
/* columns rows colors chars-per-pixel */
"80 80 256 2 ",
"   c #36392C",
".  c #3A3A32",
"X  c #2C3627",
"o  c #1E391F",
"O  c #44362B",
"+  c #483A35",
"@  c #513E39",
"#  c #164917",
"$  c #1B541B",
"%  c #0C4F15",
"&  c #255619",
"*  c #255115",
"=  c #0D661A",
"-  c #194D25",
";  c #195829",
":  c #175B2D",
">  c #254928",
",  c #245C2C",
"<  c #265728",
"1  c #3A4836",
"2  c #285A36",
"3  c #355939",
"4  c #304F30",
"5  c #19682B",
"6  c #18762A",
"7  c #1D6833",
"8  c #1B7634",
"9  c #0C6D24",
"0  c #26652B",
"q  c #25792D",
"w  c #246333",
"e  c #246B3A",
"r  c #2B6C3C",
"t  c #296636",
"y  c #356839",
"u  c #2C753C",
"i  c #2B7B3C",
"p  c #257837",
"a  c #37763B",
"s  c #34682A",
"d  c #24631C",
"f  c #48443A",
"g  c #55473C",
"h  c #4A5136",
"j  c #486F3D",
"k  c #67553C",
"l  c #2E6742",
"z  c #376A44",
"x  c #2C7B42",
"c  c #2C7642",
"v  c #337343",
"b  c #337B43",
"n  c #3C7D4C",
"m  c #397648",
"M  c #3C7653",
"N  c #345A44",
"B  c #564842",
"V  c #504F43",
"C  c #665648",
"Z  c #6B574E",
"A  c #446B47",
"S  c #467947",
"D  c #487853",
"F  c #57704A",
"G  c #7C6857",
"H  c #687952",
"J  c #787657",
"K  c #6C6C50",
"L  c #6C7061",
"P  c #856B56",
"I  c #88775D",
"U  c #906F5E",
"Y  c #957C66",
"T  c #8C7569",
"R  c #1B8432",
"E  c #19832E",
"W  c #238334",
"Q  c #25833B",
"!  c #2B833D",
"~  c #278A39",
"^  c #348A3D",
"/  c #28953B",
"(  c #30933A",
")  c #4D873C",
"_  c #2D8442",
"`  c #2C8C43",
"'  c #278A43",
"]  c #338345",
"[  c #338C45",
"{  c #35844A",
"}  c #3A844B",
"|  c #348C4B",
" . c #3A8C4C",
".. c #3B8744",
"X. c #2B9445",
"o. c #339345",
"O. c #35944B",
"+. c #3B944D",
"@. c #359B4B",
"#. c #3B9C4C",
"$. c #369944",
"%. c #3B8953",
"&. c #3C9454",
"*. c #3C9C53",
"=. c #369854",
"-. c #39A74B",
";. c #3CA452",
":. c #3CA756",
">. c #3AB04E",
",. c #1E8742",
"<. c #468849",
"1. c #5C8D4C",
"2. c #588847",
"3. c #47954A",
"4. c #5E914D",
"5. c #57964D",
"6. c #448B53",
"7. c #478759",
"8. c #5C8C52",
"9. c #568957",
"0. c #439354",
"q. c #429B54",
"w. c #43955A",
"e. c #449C5B",
"r. c #4A9C5B",
"t. c #4C9757",
"y. c #5F9152",
"u. c #579559",
"i. c #63894D",
"p. c #62934D",
"a. c #659A4C",
"s. c #638D53",
"d. c #698958",
"f. c #74885C",
"g. c #629353",
"h. c #63955A",
"j. c #689957",
"k. c #75955A",
"l. c #42A253",
"z. c #43AB55",
"x. c #45A45A",
"c. c #4AA45D",
"v. c #45AB5B",
"b. c #4AAC5C",
"n. c #4BA753",
"m. c #56A659",
"M. c #43B454",
"N. c #49B25D",
"B. c #47B95A",
"V. c #46B151",
"C. c #6AA75C",
"Z. c #74A45C",
"A. c #4B9962",
"S. c #559A65",
"D. c #538D67",
"F. c #679964",
"G. c #739264",
"H. c #4CAC63",
"J. c #49A763",
"K. c #56A968",
"L. c #4CB363",
"P. c #4BB966",
"I. c #52B465",
"U. c #55B36B",
"Y. c #5ABB6C",
"T. c #57B868",
"R. c #5CA872",
"E. c #5CB873",
"W. c #4DB871",
"Q. c #69A566",
"!. c #79AA67",
"~. c #79B56C",
"^. c #67B978",
"/. c #7DB477",
"(. c #6BAA75",
"). c #4CC45D",
"_. c #5BC36C",
"`. c #56C668",
"'. c #5BC572",
"]. c #58CF6A",
"[. c #64C777",
"{. c #68D679",
"}. c #70C975",
"|. c #6AE179",
" X c #88885D",
".X c #898465",
"XX c #97866A",
"oX c #93966C",
"OX c #9A9873",
"+X c #958B71",
"@X c #A48A76",
"#X c #A79679",
"$X c #AC987A",
"%X c #84B56B",
"&X c #97A674",
"*X c #88B976",
"=X c #97B67A",
"-X c #8AA76C",
";X c #A4A67B",
":X c #A6B17D",
">X c #88C579",
",X c #97C87C",
"<X c #9CD27E",
"1X c #A5D57D",
"2X c #74BB83",
"3X c #72D086",
"4X c #7CE789",
"5X c #AC9983",
"6X c #B59B86",
"7X c #AAA782",
"8X c #B4A688",
"9X c #A9B985",
"0X c #B4B78D",
"qX c #BBB893",
"wX c #BCA092",
"eX c #9ABD83",
"rX c #C4B296",
"tX c #8CC383",
"yX c #9CCE83",
"uX c #97CC87",
"iX c #9DD285",
"pX c #9BD68A",
"aX c #9DD694",
"sX c #95CD8F",
"dX c #A7CB89",
"fX c #B2C78C",
"gX c #A4D585",
"hX c #A9D686",
"jX c #A6D986",
"kX c #A9D984",
"lX c #A6D68A",
"zX c #A9D68A",
"xX c #A6D889",
"cX c #AADA8C",
"vX c #B1D58E",
"bX c #B7C893",
"nX c #A4D692",
"mX c #AAD591",
"MX c #A5DA92",
"NX c #ACDC92",
"BX c #ABDD9B",
"VX c #A4D99A",
"CX c #B4D393",
"ZX c #B2DC93",
"AX c #B9D398",
"SX c #AFC991",
"DX c #ABE08D",
"FX c #ACE193",
"GX c #AAE299",
"HX c #B2E49B",
"JX c #B2E296",
"KX c #B1E28C",
"LX c #AADEA3",
"PX c #B2E6A5",
"IX c #91EE9D",
"UX c #C1C99D",
/* pixels */
"cXcXZXcXcXZXcXcXKXNXcXZXKXcXNXZXNXZXNXNXGXNXDXDXxXDXMXFXZXZXZXvXZXZXZXZXZXZXvXZXZXJXZXZXZXZXJXJXKXFXDXDXcXDXGXFXGXNXNXNXBXBXBXZXcXZXKXcXNXZXcXcXZXcXKXNXcXFXZXcX",
"cXzXcXcXgXcXcXcXhXcXzXzXlXcXhXhXMXcXzXlXxXxXxXxXpXcXxXcXzXzXhXhXhXhXdXvXhXZXZXcXhXhXcXcXcXzXlXdXxXlXxXlXxXlXxXlXxXlXnXmXmXmXmXVXgXcXzXcXkXhXcXlXcXhXzXcXhXzXhXcX",
"zXgXhXcXhXzXzXcXzXhXzXgXcXgXxXcXlXlXxXxXxXxXxXkXcXgXxXzXxXzXcXcXvXzXcXcXzXzXhXdXzXdXzXlXzXhXzXzXpXxXpXxXjXjXgXlXlXlXnXzXmXzXzXmXhXlXcXhXxXlXzXhXlXhXhXxXhXlXzXzX",
"cXcXcXcXzXcXcXcXcXcXcXcXcXcXcXcXxXcXcXjXcXcXcXcXcXcXzXlXlXcXcXDXdXlXMXcXdXlXzXcXVXlXzXlXdXmXzXCXcXxXcXxXcXxXcXcXcXcXcXcXcXmXzXmXzXcXcXcXcXcXcXcXcXcXcXcXcXcXcXcX",
"gXzXlXhXgXzXlXgXgXlXgXlXgXzXzXgXDXiXjXjXhXhXdXzXcXzXlXlXlXpXpXpXGXDXlXxXlXpXlXnXMXlXNXlXlXMXpXcXkXxXxXxXcXxXzXzXlXgXgXzXlXlXhXxXgXzXzXlXgXcXhXzXgXzXlXhXlXgXgXzX",
"lXhXzXgXhXlXhXlXcXhXzXhXhXgXlXzX1XiXjXkXhXhXhXzXzXzXlXlXNXMXMXDXaXpXpXiXaXDXaXpXxXpXHXlXlXGXlXpXlXxXlXxXlXxXzXzXhXcXhXgXgXhXhXgXzXgXgXzXzXgXlXgXlXhXzXgXhXzXzXgX",
"cXcXzXcXcXcXcXzXzXcXcXzXzXcXcXcXjXjXgXzXhXvXzXCXvXzXmXNXDXpXpX>Xm.C.}.>X}.>XpXaX>X>XpX~.>XVXpXMXlXlXMXxXlXlXMXzXcXcXkXlXhXkXkXkXzXcXcXcXcXzXcXzXcXcXzXcXcXcXzXcX",
"gXhXgXzXgXlXgXhXhXgXzXgXzXgXhXgXjXjXkXhXhXhXmXzXmXmXnXaXsX}.m.m.6 ( m.m.n.) m._.n.5.m.3.m.uXpXaXMXMXNXMXMXNXMXMXlXlXkXhXgXkXkX1XhXlXgXzXgXhXzXgXgXzXgXhXgXzXgXzX",
"cXzXzXgXzXxXhXzXzXlXzXhXxXzXcXhXDX<XDXDXjXlXlXnXVXpXpX<Xm.^ 3.m.( l.n.( q ^ o.q I.5.$.m.m.^ q m.yX%XC.~.nXMXpXMXpXNX<XlXkXcX1X1XzXhXxXgXcXhXzXxXzXlXzXgXzXgXxXhX",
"hXgXcXcXzXzXxXzXgXcXlXhXcXgXzXlX<XDXDXiXNXGXlXHX>X5.^ 5.5.3.3.$.~ #.T.T.b.b.l.( W n.^ K.T.^ ^ 5.5.a d 5.uXVXLXMXGXBXuXGXcXcXcXKXlXhXzXcXzXlXhXlXcXhXcXcXcXcXzXzX",
"lXzXxXzXhXxXzXxXcXlXcXcXcXzXcXgXFXiXxXJXMX%Xy.Q.Q.<.a ^ n.n.n.$._.Y.z.o.v._.I.-.#.Y.( O.b.l.#.Q t.3.^ 5.m.u.Q.Q.tXpXMXHXuXlXcXkXzXcXgXcXzXzXcXcXgXzXhXxXgXzXhXlX",
"gXcXhXzXxXzXhXlXhXzXgXzXhXgXcXzXlXpXnX~.3.<.t.t.<.t.3.W W $.n.;.:.v.v.L.L.=.~ O.b.l.v.Y.^.@.W H.3.^ ........} } m y./.GXpXlXNXpXgXcXzXzXkXlXgXzXgXcXzXlXhXcXcXzX",
"zXzXcXhXhXlXhXcXgXcXhXzXlXgXcXlXmXHXuX<...u.J.J.L.U.*.6 R N.[._.U.'.I.;.b.U.Y.[.[.U.x.;.v.O.O.[.T.c.^.e.' &.b b <.a <.uXVXGXGXnXcXgXzXlXzXxXlXhXzXlXzXhXlXcXgXgX",
"cXgXhXlXcXzXcXgXzXzXxXxXhXcXzXhXlXPXuX3.t.%.x W.*.=.,.R X.L._._.*.x.O.[ b.E.H._ Y.U.` #.Y.@.O.~ ( Q c.O.x %.{ n n m 0 a j !.pXsXzXgXcXhXcXhXzXcXcXhXzXxXhXcXzXcX",
"lXzXcXgXcXgXzXlXcXgXxXzXxXzXxXzXBX*X) $ 3.^.J.,.,.,.;.:.P.N.>.V.c.Q _ U.H.q 9 [ q.&.Q q.K.6 o.E.J.X.` =.| =.%.l b S.n ; $ F.VXPXxXcXhXcXgXzXgXzXhXcXcXgXcXgXxXxX",
"cXhXlXcXzXgXcXhXcXzXhXzXzXxXhXzX*Xs y <.b &.J.W.,.W.`.W.'.N.X.W +.p [ q.[ 8 8 q _ I.^.` +.e.*.q.L.:.=.J.%.8 =.c %.S.9.9.S <.Q.eXhXzXlXzXgXcXcXzXlXzXgXcXxXxXxXjX",
"zXzXzXhXkX1XkXkXjXGXlXHXlXnXHXJX/.u ..t. .c.U.K.' J.H.O.` | ! i n D v  . .[ W X.X.`.'.v.l._.I.6 X.@.P.J.! i K.&.7 A.%.p c ; % 2XnXLXlXxXkX1X1X1XKXcXcXlXlXxXxXjX",
"mXzXlXkXkX1XkXjXcXnXtXnXdXBX~.a.6.e u t.(.H.e.U.J.8 Q *.O. .U.^.r.K.t. .! ~ ~ -.N.{._.>.N.N.-.( :.:.H.I. .! r. .w.E.A.%.} 6.m m S sXnXyXKX1X1X1XKXkXmXMXnXlXxXjX",
"mXlXlXkX1XjXjXjXlXMXBXPXLXGX<.* q <.} 0.H.K.U.E.L.' *.[.U.&.q.q.6.6...! ^ W o.l.'.;.R -.[.-.E V.z._.l.l.~ O.K.H.8 | | O. .u a % a sXGXpXDX1X1X1XhXnXmXlXnXxXjXjX",
"nXlXlXcXkXkXkXkXdXVXnX~.Q.F.<.) 6.0.i i 8 i *.X.@.W.Y.T.T.b.@.o.x.q.c.x.q.Q @.Y.L.L.-.z.[.[.V.-.B.P.-.-.q 6 q.o.' [ Q _ K.3.^ 0 S h.tXMX<X,XKXDXcXzXmXnXlXxXjXjX",
"MXxXxXkXkXjXlXlXHXnX*Xm u 5 %.w.} p 5 A.J.R 6 9 R P.W.:.V.T.M./ ^ ~ ( o.*.O.O.Q x.b.T._.B.-.-.V.M.-.M.[.b.6 ( ! @.U.[.| [ q.t.<.y a h.aXHXcXcXgXlXzXzXmXlXxXxXjX",
"pXpXxXjXkXkXzXzXsX!.9.a n 5 %.8 { &.+.J.E.| 6 ' @./ M.'.).).M.E ~ ( -.( x.Y.x.9 Q E.3Xz.( ).].-.B.>.B.I.n.$.K.x.;.O.K.| ! K.t.= , 7.F.tXMXyXyXHXnXzXmXMXlXxXgXkX",
"MXpXpXjXkXhXzXmX*Xj < r b { w.%.K.^.x.6 8 X.X.P.v./ -.].`.B.).>./ `.3X`.o.x.x.Q | H.N.-.$.V.V.V.].].N.~ ( #.+.n.J.| c.U.&.0.<.q m D ; j sXPXnXsXzXzXmXlXcXxXxXkX",
"pXDXxXjXxXzXmXnXVXS u w.} w.=.=.&.' O.Q ' W.'.L.>.N.B.].].`.>.).>.`.].[.v.E.U.A.J.3X}.b.V.>.-.).'.P.X.o.K.r.5 ^.2XE.{ J.t.] p a r <.m 7.Q.tXVXVXMXnXlXlXxXxXgXcX",
"GXDXpXDXiXcXHX*X2.<.t u x x J.W.%.' U.&.;.H.'.:.>.].{.).>.>.|.|.].M.V.-.-.l.E.+.6 Y.Y.v.[.4X{.V.N.O.W &.R.] 7 t.R.%.e : x R.A.: , - w D.6.< tXnXBXlXlXhXzXcXNXgX",
"pXpXjXDXxXxX%X$ % m , e w.e.=.J.| | E.E.` O.L.L.`.P.).`.).).).].].M.>.`._.;.^ 8 % Q R ' N.{.{.V.3X3X&.5 b p $ : e %.e : e R.7.e : r 6.n n j *XVXuXlXcXcXcXgXhXcX",
"FXxXpX<X<XHXuX0 <.} e c c x &.=.| | { | J.[.L.;.B.>.:.`.].).>.].].`.( V.3X[.#.c.Q Q 6 = = / _._.J.;.p i K.<.; ; } R.A.7 : c l l 7.5 l n n , a LXBXNXgXgXcXcXgXmX",
"DXiXjXpXpXDX>Xs t : c R.K.*.R.e.A.^.J.9 J.I.$.W X.X.>.>.].].>.].|.].( ( L.[.'.[.H.Q 6 8 W l.[.Y.=.' 8 u 6.7.r , l n %.e %.l v A.t.e u r v a 2 j.nXHX1X<XcXcXgXmX",
"lXlXcXcXxXpXQ.q u.R.} c 8 7 _ +.| E.^.5 o.c.b.;.`._.`.>.[.].>.>.`.E = E 9 ( _._.x.R ' o.! @.H.b.*.' _  .p t u 0 c : : 7 R.7.%.R.p u <.u t S t # Q.gXNXgXhXcXgXNX",
"cXMXlXuXMXGX~.<.0.S.%.%.b 7 i  .] 5 p ^ ..[.}.c.l.N.>.-.B.).>.|.IX}.W 6 E W $.@.I.N.L.O.9 5 _ w.@.9 p q.6.6.6.r %.%.7 7 %.%.c D.t.6.A.D.7.m a a !.gXcX1XkXcXzXmX",
"dXmXcXjXGX>X) q ..} w.^.A.b t.u.q.5 ] r.! O.+.W ;.b.-./ >.>.>.).~.{.^ = l.z.$.-.'.'.L.=.c.U.&. .;.;.@.!  .^.(.b 7 c 8 { ' c 9 n ..] 6.e r 2 a 9.VXlXkX1XgXcXNXmX",
"CXzXzXlXDXT.d W x K.%.x %.5 q <.i ^ K.r.0.= = W _.[.$.$.'.{.].X.3.^ q q.{.{.'.N.N.P.H.| H.2XA.w.P._.b.q.t.K.m.A.0.| x | &.c 5 _ q 5 b 7 7.b D tXGXjXhXKXkXdXzXMX",
"lXGXjXyXGX%X) j l D.D M l , - , _ | _ H.q.! 6 !  . .5 ! 6.R.2XS.N.6 E >.P.].].`.).V.$.$.$.P.X.,.P.-.>.'.:.J.J.A.W.A.: e u e b S.D.A.R.7.2 S 2.dXMXzXdXzXNXlXiXcX",
"iXlXlXpXGXLX~.y t 2 2 M 7.l # w r.R.w.t.J.^ 7 ] 0.&.= % 5 c c %.@.-.N.T.>.X.>.>.].>X{.z.Q :.:.=.R >.`.P.x.[.R.x w.c n w.7 7 } <.M %.M m < a !.!.zXZXcXlXjXpXjXMX",
"cXlXcXjXpXHX/.& - , D L - - z y A.Q.b e t.t.0.K.U.K.p 5 b { : x W n.[.{.B.-.>.`.`.T._.V.E @.'.L.X.X.:.X.@.H.e.x c 8 c v u r t w : : w 2 $ $ # s %XgXZXlXxXcXjXjX",
"cXyXlXcXgXMXuX9.m z 2XR.: l 7.: - l v n ^.S.%.] t...p _ %.&.8 | T.Y.N.-.M.M.B.].n.V.W ( T.Y.H.b.#.' *.=.O._ O.K.&.c c 7 n 7.z r l w : m $ s a.& %XdXcXzXxXcXxXiX",
"zXhXhXzXcXNXMXVX*XD 2 - : l l M : ; ; ; p u S.E.e.| &.&.p ' ' e.T.T.n.B.[.).-.V.C.V.( ) [.[.I.6 q  .3X}.K.O.c.[.e.p 6.b v m D z %.l - 7./.(.VXmXlXZXcXgXgXhXjXDX",
"hXKXhX,XgXcXpXnX(.< : 2 M l : e t 2 0 , % ; K.^.U.H.U.U.X.;.J.J.m.m.;.( M.>.V.`.`._.( ( T.3.W O.u ..R.K.+.! ( #.[ !  .n v 2 2 l l : m m y j.VXnXNXcXgXgXhXhXpXxX",
"1XvXkX1XcXFXNXBX2X< t z b 7.7.7 v t.6.} e q  .*.O.x.*.:.O.J.L.:.( l.b.-.( / / V.).( ( $.^ W O.T.6.5 5 p 6 W 6 9 O.K._ c %.l - N e M t w < # %XNXgXdXgXkXKXxXgXjX",
"hX1XkXkXgXgXlXBXs.; l z M n M M e A.w.t.x.c.[ 8 l.[.H.=.' O.*.O.W n.T.B.>.>.M.`.( ( T.n.3.n.L.H.6.c b &.[ I.N.$.;.I.| b l l N z 2 z 9.y s 1.tXMXlXcXhXgXkXkXkXkX",
"hXgXgX1XkXkXlXMX9.y ; 7.v t M } &.*.' ` L.x.x.Y.I.V.'.-.#.x.n.6 6 c.H.b.X.).3X).B.@.-.'.H.l.*.O.7 %.A.w.H.'.W.;.$.@.w.w.b e M D <.D.y 2 < *XPXlXlXxXcXkXgXkXcXgX",
"hXkXkX1XkXkXlXlXPXs # ; : <.<.R.W.*.8 *.H./ X.T.I.b.I.m.n.^.K.O...K.H.z.E / >.P.B.:.N.l.W.J.;.Q %.%.| =.J.L.T.v.;._ `  .n l l 2 y y w a j.pXHXiXcXkXxXkXgXkXcXgX",
"gXgXgXjXkXhXcXlXj.< t : : S.<.7.v.W.:.'.L.:./ E n.O.#.0.3.t.t.3.u R.3XE.' R -.[.{.3XI.O.3X4XJ.8 c =.A.3X[.:.K.L.b.i 8 5 c M l - < , y 2.PXVXtXHXxXkXjXgXhXhXzXzX",
"jXjXkXkXkXhXxXlX*Xs.< # , 7.6.c :.X.' W.H.b.;.x.O.^ ^.^.K.^ a a ; v { 0.H.L.=.X.[.^.( p =.2X%.9 : %.A.E.*._ H.[.e.&.%.e l l M z , # Q.sXLXlXFXcXxXlXjXkXcXhXlXcX",
"jXjXiXjX1XkXkXlXPXVXS <.u.b } } H.*.i x.O.K.E.E.8 u R.K.A.: : w y , : c 2XE.O.9 Q p ] r.| _ 7 8 | E.2X| 5 8 p i e t.2X<.w , t y & 0 *XLXaXpXiX1XxXDXxXkXNXzXlXZX",
"pXpXDX1XjXkXxXlXeXBXnXLXsXF.a a w.A. .{ c J.r.u 9 : r r : : - w 3 - 3 z %.7 5 _ 5 =  .R.A.u %.%.= 8 { 9 7 6.{ : w n 7.y w y < > < h.F.Z.%X%Xa.,X,XDXcXlXNXzXdXMX",
"pXDXpXDXkXkXjXxXBXBXLXVXQ.S.<.0 z t ; t w t r e : l M l z M l N 3 > D D m 7 u r.{ ; 5 u c c w.7.| O.x p } S.u.m n z y 3 y 9.< y 9.p.1.p.) p.a.a.Z.<XxXiXZXNXlXmX",
"pXpXjXpXjXjXxXlXmXsXVXLX<.a 3.u - t t r r r r ; e M M 2 M M M N X o D D m l c } c i u 7.n D.7.e q.w.c { b : t ; z z y a 4 j > 2.j.g.1.j.p.) a.2.) %X<X,XmXNXnXMX",
"DXDX1XjXlXkXxXlXlX,XNXHX!.Z.Z.* < 2 z y z D D 2 D M 2 > 2 z A z A > # w A.=.8 6 :.,.:.L.J.e.w.&.6.v M M N 2 2 N - - < j * # j p.4.) a.p.4.y.y.h.8.s.j.,XJXcX1XxX",
"jXjXjXjXkXkXjXxXGXxXgXlXzXZX*X* > 2 # o 3 l 2 3 l N 2 N l 4 < A h > y z 2XK.J.' 6 X.J.J.J.&.{ A.7.e v 7.z D D N N A < h y j i.p.4.4.a.p.4.y.y.g.h.1.2.Z.,XKXcXkX",
"kXjXjXjXkXlXxXxX,XJXNXpXzXNXhX%Xd.d.s - D A 2 M 2 < 2 - < < > S N 4 A D (.R.r.] =.J.w.] A.t.l D.b t r 2 : D D 4 3 D > < S 8.s.s.4.p.4.4.g.y.y.8.s.p.2.1.Z.,XxXkX",
"jXjXkXjXkXhXxXxXgXcXgXdXmXzXNXJX(.*XD A h.D , 2 2 - 2 2 2 A < < A h 1 A N D t 0 S.S.7.m Q.D.: - m 7.m ; 2 2 < < 3 D < < 1.h.s.g.4.4.p.y.y.y.y.g.1.g.g.p.k.>XcXkX",
"jXkXjXgXxXkXxXxXNXlXyXNXMXlXyX%X8.h.8.9.F.9.2 # y # y < > S S > F . X 4 o 3 > 2 m A z N M M . o , s 0 y y < > S 9.9.S S d.h.g.4.4.4.4.4.y.y.y.s.g.8.1.j.Z.dXJXcX",
"jXjXkXlXkXxXxXlXgXzXZXNXgXlXgXs.1.1.8.h.h.h.9.y S # , 4 < F d.D L X X X 1 1 1 h V > > o . N N . # $ < & # s 9.9.F.s.h.F.g.y.g.4.g.4.g.y.y.y.y.y.g.2.1.a.a.%XlXlX",
"kXgXxXkXxXxXxXxXlXMXgXyXzXJXyX2.j.i.4.y.1.y.y.u.A s a 9.2.9.f.G.L   f   h . V . . X   . N V . X S 2.S < & S F.9.h.9.u.g.y.y.1.y.y.4.y.y.u.h.y.y.8.1.j.s.2.Z.gXcX",
"jXjXkXxXkXlXxXxXgXZXgXgXZXcX*Xp.4.4.4.j.g.2.2.j.h.h.s.d.G.d.d.G.K 1 + . f f f . + V f . . . X N s.k.d.8.9.8.s.j.s.h.y.1.y.g.1.g.y.y.y.g.8.s.y.y.h.s.g.1.i.%XNXzX",
"kXxXkXlXxXxXlXxXcXlXzXcXlX*XZ.p.4.a.) p.4.4.1.g.p.i.i.f.d.H f. XV V 1 O B f O + + @ @ . . + f f i.f.f.d.G.s.1.j.s.8.y.j.5.1.5.g.g.4.y.g.y.y.y.1.g.g.1.2.!.lXNXgX",
"lXxXxXkXcXxXhXxXcXlXcXMXcXyX%X%XZ.Z.a.a.p.a.a.i.i.i.i.f.f.f.f.i.V f f + C B @ + + @ @ + + @ f . H f.d.d.d.d.2.g.y.4.4.y.4.y.4.g.y.4.4.y.8.y.j.g.g.p.j.!.,XdXlXMX",
"xXxXxXxXkXxXxXxXxXlXlXcXNXcX1X1X%X%XZ.a.) 2.a.) j.k.k.i.H J K k g h V f Z B B + + @ + + + B . . C H f.f.G.G.g.g.4.4.y.4.1.g.g.p.g.g.g.4.y.4.4.1.1.4.!.dXMXdXlXNX",
"xXxXxXxXxXlXxXcXcXkXxXxXgXcXcXzXkXiX,XZ.a.a.!.j.2.i.F F H I Z g C C Z C Z B @ + @ @ + + B + + . h h F h F i.d.j.g.y.4.4.4.g.g.8.2.4.4.4.y.g.4.4.a.Z.>XlXNXMXlXnX",
"lXcXlXlXlXlXcXxXxXcXxXjXgXgXxXcXlXlXpX*X!.j.!.i.i.k.oXoXT G Z C G G G T T Z C @ Z Z + O g g g O O f k V F H i.s.g.4.s.g.g.s.s.p.4.j.j.g.g.a.4.p.*XiXcXcXlXNXcXgX",
"zXlXcXlXlXcXlXxXxXxXxXcXcXcXxXxXlXGXGXMXcXyX,XG.9XfXbX7XT P G T T P @XwX5XP Z Z +XG + + Z G G @   g G G.G.f.d.H s.g.g.g.4.g.j.j.g.j.C.j.!.!.!.~.NXNXcXMXcXlXlXcX",
"MXlXlXlXlXlXxXxXcXxXxXcXcXcXcXgXyXlXiXxXFXlX*X-XAXeXoXOX@X@X@XY P T wXwX@XP U G 6X5Xg C U +X@XG B @ Z H H F d.k.s.Z.Z.8.8.G.!.-X) Z.!.~.uXxXlXHXxXxXlXlXcXxXlXcX",
"zXlXcXlXlXcXlXxXcXgXgXgXxXxXlXjXpXHXpXVXlXlX*XeXeXeXOXOX@X@X@X@XU T wXwXT G T T @X@XZ C U XXwXY Z B Z L C F F i.g.!.!.1.2./.eX*X!.uXlXpXGXDXiXjXpXcXcXgXgXcXxXjX",
"cXxXxXxXxXhXxXxXcXkXlXxXxXxXxXxXpXpXDXgXvXAX1X:X$X X$XXX#X X:XI P Y 6X$XY P I .X#X5XP C P XX#X#XXXU k k U oXJ k H f.i.2.Z.,XlXNXxXxXxXlXxXxXcXgXxXcXgXgXcXxXgXcX",
"lXxXxXxXxXxXxXxXxXgXxXxXhXlXxXxX<XDXjXgXvXfX:X$XoXXX:X:X0X:XUXXXP $X6XY J  X.XI +XrX@XG P Y XXXX$XwXXXP $XrX;XoX&X=X&X-X-X1XlXlXxXxXxXkXxXxXkXcXxXxXcXxXxXxXcXxX",
"xXgXcXxXxXlXcXgXxXcXhXxXxXxXxXlXiXpXxXxXhXfX:X:XoX$XrXrXrX0XqXXXY 6X$XXXY 7X8X+X@X$X$X@XP U $XXXY XX@XXX.X;XfX:XfXbXvXdX1XhXcXlXxXxXxXlXxXxXlXxXlXxXxXcXkXxXxXgX",
"xXcXkXlXxXkXcXxXxXxXxXxXxXxXcXkXjXjXxXcXvXvXfX9X:X1XfXrXqX9X#XoX6X$XXXXX6XrXqX5X8XY @XrXXXY wX$X$XXX#X$X X X7XbXfXCXSXdXvXZXzXlXxXxXxXcXlXxXxXxXkXxXxXgXlXxXxXcX",
"cXxXxXxXxXxXlXhXxXxXxXxXlXkXgXcXjXjXxXlXcXCXbXSXfXbXbXbX0X7XoX&XrXXXY @XwXqX8X5X$X$XP XX$XY U :XqXqXoXoX:X Xi.9XdXvXdXdXxXxXjXjXxXxXlXkXcXxXxXxXxXcXgXxXxXxXxXxX",
"kXgXcXxXxXxXxXxXlXkXxXxXxXcXxXgXDXjXgXlXzXzXzXzXCXbXbX9X:X&X.XOX$X$X$X$X8XqXqX0XrXrX#X#X$XXXXX$X0XbX0X9XUXfX=XfXSXCXhXzXcXkXpXjXxXxXxXxXkXlXlXkXxXxXcXxXxXhXlXxX",
"lXxXlXxXxXxXxXcXgXcXcXxXxXxXxXcXcXhXcXkXlXlXnXmXCXSXSX=X&X&XoXoX@X$X8X8X0XqXqXqX8X$X#XXX X XXXoX&X=XfXSXdXSXAXvXzXCXcXxXhXjX<XDXxXcXxXcXcXxXxXxXlXxXxXxXxXcXxXxX",
"xXxXxXkXxXlXxXkXcXxXgXxXxXxXxXxXhXgXhXcXcXlXlXMXpXdXcX-X&XfXbXfXOX+XoX&X0X9X7X&X;X;XXXoX$XOX:XUXdXSXdXfXvXCXvXhXzXzXcXkXjXiX<XDXxXgXgXcXgXxXxXxXkXxXxXxXlXkXxXlX",
"xXlXcXkXlXxXxXxXcXkXlXxXxXxXxXcXhXhXxXxXxXxXpXMXlXlXdXdXSXSXbXbX0X&X&X9XSX&X&X7XOX-X#X9XqXbXbXSXSXmXmXzXmXzXmXzXzXlXxXkXjXjXpXjXcXxXxXkXcXgXxXlXxXxXxXxXxXxXcXkX",
"xXxXxXlXkXxXcXgXxXxXxXxXxXlXxXgXhXhXcXxXxXxXxXxXMXMXmXzXdXCXCXCXbX9X9XdXSXdXeX9X-X&X:XfXAXAXCXAXlXnXmXzXlXlXzXlXcXkXxXgXjXjXjXjXgXcXxXlXxXlXcXkXxXxXhXxXxXxXgXcX",
"xXxXxXxXzXxXxXxXhXxXxXxXcXkXxXxXhXhXxXxXpXxXxXpXlXMXcXMXvXvXCXvXCXCXmXnXmXmXSXdX=X,XSXAXCXmXlXMXcXlXzXzXxXxXxXxXxXxXxXhXkXlXkXkXxXzXxXxXxXxXlXcXgXcXxXxXlXxXxXxX",
"xXxXlXkXxXxXxXxXxXxXxXzXxXgXcXcXhXcXcXxXxXxXxXxXlXxXlXlXzXvXhXvXlXCXmXlXnXVXcXzXvXAXAXCXzXsXpXxXlXlXlXlXxXxXxXxXkXkXxXkXkXlXkXhXkXxXxXxXxXxXkXxXcXxXxXxXxXkXxXlX",
"xXcXxXxXxXzXkXlXxXxXxXxXgXcXxXgXhXzXzXcXhXxXxXxXlXxXxXxXzXzXlXzXlXcXcXcXxXxXvXvXhXvXvXhXlXxXcXMXlXlXxXxXpXxXxXkXlXkXkXxXhXgXzXhXlXxXxXxXxXlXcXgXkXlXxXcXkXlXcXkX",
"xXgXxXxXxXxXxXxXxXxXxXxXcXxXxXxXzXzXzXzXcXzXzXhXxXxXxXxXzXlXlXlXcXxXlXcXxXjXkXvXdXhXfXhXcXDXxXpXlXxXxXxXxXxXxXxXxXxXgXcXhXcXhXzXxXxXxXxXkXcXxXxXxXxXgXcXxXxXxXxX",
"cXxXxXxXkXxXcXcXcXkXlXxXgXkXlXxXxXlXxXzXzXhXhXhXhXhXkXkXjXDXxXxXkXxXjXjXjXpX1XhXvX1XhXhXjXjXpX<XxXpXxXxXxXxXxXxXlXgXcXzXlXzXhXcXcXcXxXxXlXxXxXxXxXxXxXxXxXlXhXxX",
"gXcXkXlXlXxXgXxXgXcXxXxXxXcXxXxXxXxXkXzXkXvXhXhXhXhXjXjXjXpXjXpX1XjXjXiXkXDXkXvX1XvXvX1X1XjXDXpXxXxXxXxXjXxXxXxXlXcXlXhXzXhXhXhXgXxXkXlXxXxXkXlXxXxXgXcXxXxXxXxX"
};
